<svg xmlns="http://www.w3.org/2000/svg" width="1100" height="3875.01" viewBox="0 0 1100 3875.01"><g transform="translate(-225 659)"><rect width="60" height="3875.01" transform="translate(1185 -659)" fill="red" opacity="0.102"/><rect width="60" height="3875.01" transform="translate(1265 -659)" fill="red" opacity="0.102"/><rect width="60" height="3875.01" transform="translate(1105 -659)" fill="red" opacity="0.102"/><rect width="60" height="3875.01" transform="translate(1025 -659)" fill="red" opacity="0.102"/><rect width="60" height="3875.01" transform="translate(945 -659)" fill="red" opacity="0.102"/><rect width="60" height="3875.01" transform="translate(865 -659)" fill="red" opacity="0.102"/><rect width="60" height="3875.01" transform="translate(785 -659)" fill="red" opacity="0.102"/><rect width="60" height="3875.01" transform="translate(705 -659)" fill="red" opacity="0.102"/><rect width="60" height="3875.01" transform="translate(625 -659)" fill="red" opacity="0.102"/><rect width="60" height="3875.01" transform="translate(545 -659)" fill="red" opacity="0.102"/><rect width="60" height="3875.01" transform="translate(465 -659)" fill="red" opacity="0.102"/><rect width="60" height="3875.01" transform="translate(385 -659)" fill="red" opacity="0.102"/><rect width="60" height="3875.01" transform="translate(305 -659)" fill="red" opacity="0.102"/><rect width="60" height="3875.01" transform="translate(225 -659)" fill="red" opacity="0.102"/></g></svg>