<svg xmlns="http://www.w3.org/2000/svg" width="40.088" height="32.975" viewBox="0 0 40.088 32.975">
  <path id="Diamond" d="M844.081,1068.446c0-.032-.026-.047-.032-.078a.669.669,0,0,0-.024-.205l-4.119-9.7a.728.728,0,0,0-.668-.439h-30.4a.728.728,0,0,0-.669.439l-4.122,9.7a.765.765,0,0,0-.026.205c0,.031-.029.046-.029.078,0,.014.016.026.016.042a.715.715,0,0,0,.163.434l19.32,21.833c.016.019.045.011.061.031a.82.82,0,0,0,.158.122c.013.006.016.028.034.034a.732.732,0,0,0,.582,0c.018-.006.021-.028.034-.037a.639.639,0,0,0,.155-.119c.018-.02.047-.012.063-.031l19.32-21.833a.719.719,0,0,0,.166-.434C844.065,1068.472,844.081,1068.46,844.081,1068.446Zm-15.116-8.977,3.553,8.256H815.557l3.556-8.256Zm3.543,9.7-8.473,19.307-8.468-19.307Zm-18.525,0,7.531,17.171-15.193-17.171Zm20.11,0h7.659l-15.193,17.168Zm8.173-1.442h-8.17l-3.553-8.256h8.215Zm-32.946-8.256h8.22l-3.556,8.256H805.81Z" transform="translate(-803.994 -1058.026)" fill="#ff3b4a"/>
</svg>
