<svg xmlns="http://www.w3.org/2000/svg" width="38.002" height="45" viewBox="0 0 38.002 45">
  <g id="Vector_Smart_Object_copy_24" data-name="Vector Smart Object copy 24" transform="translate(-457.999 -2046.001)">
    <g id="Vector_Smart_Object_copy_24-2" data-name="Vector Smart Object copy 24" transform="translate(-1538.707 -437.658)">
      <g id="Group_275" data-name="Group 275">
        <g id="Group_269" data-name="Group 269">
          <path id="Path_201" data-name="Path 201" d="M2029.715,2515.529a2.143,2.143,0,0,1-.888-.193,29.372,29.372,0,0,0-4.716-1.661l1.092-3.838a34.16,34.16,0,0,1,3.5,1.11,18.014,18.014,0,0,0,1.418-7.039c0-8.971-6.467-16.271-14.414-16.271s-14.41,7.3-14.41,16.271a17.919,17.919,0,0,0,1.418,7.037,34.712,34.712,0,0,1,3.493-1.108l1.092,3.838a29.3,29.3,0,0,0-4.716,1.661,2.126,2.126,0,0,1-2.724-.855,21.662,21.662,0,0,1-2.722-10.573c0-11.166,8.33-20.25,18.568-20.25s18.572,9.084,18.572,20.25a21.644,21.644,0,0,1-2.726,10.574,2.1,2.1,0,0,1-1.836,1.046Z" fill="#f2eee8"/>
        </g>
        <g id="Group_270" data-name="Group 270">
          <path id="Path_202" data-name="Path 202" d="M2015.7,2517.837a8.77,8.77,0,0,1-1.048-.06c-5.5-.581-9.642-5.535-11.367-13.591a16.906,16.906,0,0,1-.308-2.465.97.97,0,0,1,.281-.74,1.064,1.064,0,0,1,.755-.312h5.7l.934-6.4a1.048,1.048,0,0,1,2.061,0l.934,6.4h1.458l.312-3a1.026,1.026,0,0,1,1.031-.9h0a1.023,1.023,0,0,1,1.035.9l.318,3h9.592a1.05,1.05,0,0,1,.755.313.959.959,0,0,1,.285.74,17,17,0,0,1-.312,2.457c-.94,4.359-2.539,7.771-4.76,10.149l-.025.028c-.162.173-.333.334-.5.494l-.936-.513.744.694c-.362.328-.589.505-.821.682l-.823-.639.634.788c-.245.181-.493.338-.748.491l-.175.115c-.235.141-.491.267-.751.39-.025.01-.231.115-.252.123-.2.091-.455.185-.719.276l-.2.083c-.2.064-.38.112-.568.159l-.532-.894.3.953c-.021.008-.191.052-.216.056-.222.048-.443.08-.669.112l-.358.052c-.277.03-.557.04-.836.046l-.2.012Zm.8-2.035.447.939-.148-.985c.175-.022.341-.046.507-.082l.493.9-.268-.961c.287-.073.426-.109.563-.153.387-.143.578-.213.759-.3.37-.183.566-.276.757-.39.358-.223.551-.35.746-.491.354-.272.541-.418.728-.583l.218-.207c.2-.189.341-.326.484-.476h0l.015-.014a19.507,19.507,0,0,0,4.269-9.218c.073-.36.135-.734.183-1.128h-9.4a1.1,1.1,0,0,1-.412-.079,1.07,1.07,0,0,1-.41.079h-3.3a1.019,1.019,0,0,1-1.027-.857l-.029-.193-.027.193a1.026,1.026,0,0,1-1.031.857h-5.479c.048.4.11.768.183,1.136,1.53,7.144,5.015,11.525,9.554,12.007a7.57,7.57,0,0,0,.817.046c.379-.016.593-.02.809-.046Z" fill="#f2eee8"/>
        </g>
        <g id="Group_273" data-name="Group 273">
          <g id="Group_271" data-name="Group 271">
            <path id="Path_203" data-name="Path 203" d="M2000.865,2528.658h-4.159c0-7.411,6.71-13.439,14.959-13.439v3.979c-5.955,0-10.8,4.244-10.8,9.46Z" fill="#f2eee8"/>
          </g>
          <g id="Group_272" data-name="Group 272">
            <path id="Path_204" data-name="Path 204" d="M2034.707,2528.658h-4.159c0-5.217-4.845-9.46-10.8-9.46v-3.979c8.249,0,14.958,6.028,14.958,13.439Z" fill="#f2eee8"/>
          </g>
        </g>
        <g id="Group_274" data-name="Group 274">
          <path id="Path_205" data-name="Path 205" d="M2011.32,2504.143a1.167,1.167,0,1,0,1.218,1.166,1.195,1.195,0,0,0-1.218-1.166Z" fill="#f2eee8"/>
          <path id="Path_206" data-name="Path 206" d="M2020.09,2504.143a1.167,1.167,0,1,0,1.218,1.166,1.2,1.2,0,0,0-1.218-1.166Z" fill="#f2eee8"/>
        </g>
      </g>
    </g>
    <path id="Color_Overlay" data-name="Color Overlay" d="M491.842,2091c0-5.217-4.845-9.46-10.8-9.46v-2.236l-.04.019c-.2.092-.455.186-.72.276l-.2.084c-.2.064-.381.112-.568.159l-.532-.894.3.953c-.021.008-.192.052-.217.056-.222.048-.443.08-.67.112l-.357.052c-.276.03-.557.04-.836.045l-.2.013a8.685,8.685,0,0,1-1.048-.06,9.853,9.853,0,0,1-2.992-.8v2.222c-5.955,0-10.8,4.243-10.8,9.46H458c0-6.647,5.4-12.182,12.464-13.253a13.2,13.2,0,0,1-1.966-2.063l.094.332a29.3,29.3,0,0,0-4.716,1.662,2.126,2.126,0,0,1-2.723-.856,21.656,21.656,0,0,1-2.722-10.572c0-11.166,8.329-20.249,18.568-20.249s18.572,9.084,18.572,20.249a21.648,21.648,0,0,1-2.726,10.575,2.1,2.1,0,0,1-1.836,1.046,2.141,2.141,0,0,1-.888-.192,29.317,29.317,0,0,0-4.715-1.662l.1-.345q-.408.525-.849,1l-.025.028c-.162.174-.333.334-.5.493l-.935-.513.744.694c-.167.151-.3.27-.428.372C490.589,2078.8,496,2084.345,496,2091Zm-13.592-11.917-.148-.986c.175-.021.341-.046.507-.081l.493.9-.268-.961c.287-.073.427-.109.563-.153.387-.143.578-.212.759-.3.37-.183.566-.276.757-.39.358-.223.552-.35.747-.492.353-.272.54-.417.727-.582l.219-.207c.2-.189.341-.326.484-.476l.014-.013a19.494,19.494,0,0,0,4.269-9.218c.073-.36.136-.733.184-1.128h-9.4a1.106,1.106,0,0,1-.412-.079,1.075,1.075,0,0,1-.41.079h-3.3a1.019,1.019,0,0,1-1.027-.858l-.029-.193-.027.193a1.027,1.027,0,0,1-1.031.858h-5.479c.048.4.11.768.183,1.136,1.531,7.144,5.016,11.525,9.554,12.007a7.4,7.4,0,0,0,.817.046c.379-.015.593-.02.809-.046Zm4.208-1.463.112.01-.276-.214Zm-3.683-17.608.319,3h9.591a1.052,1.052,0,0,1,.755.312.959.959,0,0,1,.284.741,16.861,16.861,0,0,1-.311,2.457,27.046,27.046,0,0,1-1.95,5.925c.864.251,1.71.533,2.531.843a18.019,18.019,0,0,0,1.418-7.039c0-8.971-6.466-16.27-14.414-16.27s-14.41,7.3-14.41,16.27a17.925,17.925,0,0,0,1.418,7.037q1.231-.464,2.527-.842a26.86,26.86,0,0,1-1.951-5.917,16.877,16.877,0,0,1-.308-2.465.975.975,0,0,1,.281-.741,1.064,1.064,0,0,1,.754-.312h5.7l.934-6.4a1.047,1.047,0,0,1,2.06,0l.934,6.4H476.4l.312-3a1.043,1.043,0,0,1,2.066,0Zm1.39,7.639a1.219,1.219,0,1,1,1.218,1.166A1.2,1.2,0,0,1,480.165,2067.651Zm-8.771,0a1.219,1.219,0,1,1,1.218,1.166A1.194,1.194,0,0,1,471.395,2067.651Z" fill="#9dacad"/>
  </g>
</svg>
