<svg xmlns="http://www.w3.org/2000/svg" width="42.999" height="46" viewBox="0 0 42.999 46">
  <path id="Color_Overlay" data-name="Color Overlay" d="M975.1,2089.8v-2.517H963.9v2.517c0,2-2.216,3.2-5.931,3.2s-5.931-1.194-5.931-3.2v-2.517h-2.058A1.966,1.966,0,0,1,948,2085.33V2060.7a13.788,13.788,0,0,1,13.838-13.7h15.323A13.787,13.787,0,0,1,991,2060.7v24.629a1.965,1.965,0,0,1-1.976,1.958h-2.062v2.517c0,2-2.217,3.2-5.931,3.2S975.1,2091.805,975.1,2089.8Zm3.954-.928a9.509,9.509,0,0,0,3.954,0v-1.589h-3.954Zm-23.064,0a9.513,9.513,0,0,0,3.955,0v-1.589h-3.955Zm-4.035-28.176v22.672h35.092V2060.7a9.85,9.85,0,0,0-9.885-9.787H961.838A9.849,9.849,0,0,0,951.953,2060.7Zm23.975,15.823a2.96,2.96,0,1,1,2.962,2.93A2.944,2.944,0,0,1,975.929,2076.524Zm-18.782,0a2.96,2.96,0,1,1,2.962,2.93A2.944,2.944,0,0,1,957.146,2076.524Zm-1.239-4.324a2.952,2.952,0,0,1-2.965-2.936V2060.7a2.953,2.953,0,0,1,2.965-2.937h27.185a2.956,2.956,0,0,1,2.966,2.937v8.563a2.955,2.955,0,0,1-2.966,2.936Zm-.988-11.5v8.563a.985.985,0,0,0,.988.979h27.185a.984.984,0,0,0,.988-.979V2060.7a.986.986,0,0,0-.988-.979H955.907A.987.987,0,0,0,954.919,2060.7Zm5.024-4.076a1.957,1.957,0,1,1,0-3.914h19.113a1.957,1.957,0,1,1,0,3.914Z" transform="translate(-948 -2047)" fill="#9dacad"/>
</svg>
