<svg xmlns="http://www.w3.org/2000/svg" width="50" height="32" viewBox="0 0 50 32">
  <path id="Color_Overlay" data-name="Color Overlay" d="M623.891,2081.675a1.936,1.936,0,0,1-.888-1.619v-9.746l-4.8-2.035a1.933,1.933,0,0,1,0-3.582l22.451-9.53a2.056,2.056,0,0,1,1.6,0l22.447,9.53a1.964,1.964,0,0,1,1.057,1.067.958.958,0,0,1,.237.629v5.794a1.939,1.939,0,0,1,1,1.691v6.833a2,2,0,0,1-4.007,0v-6.833a1.937,1.937,0,0,1,1-1.691v-3.607l-4.09,1.736v9.743a1.943,1.943,0,0,1-.884,1.619,31.628,31.628,0,0,1-35.131,0Zm3.119-2.681a27.553,27.553,0,0,0,28.887,0v-6.98l-13.64,5.792a2.067,2.067,0,0,1-1.6,0l-13.647-5.793Zm-2.991-12.51,17.434,7.4,17.433-7.4-17.433-7.4Z" transform="translate(-617 -2055)" fill="#9dacad"/>
</svg>
