<svg xmlns="http://www.w3.org/2000/svg" width="50" height="39.999" viewBox="0 0 50 39.999">
  <g id="Vector_Smart_Object_copy_19" data-name="Vector Smart Object copy 19" transform="translate(-289 -2051)">
    <g id="Vector_Smart_Object_copy_19-2" data-name="Vector Smart Object copy 19" transform="translate(98.497 632.784)">
      <g id="Group_265" data-name="Group 265">
        <g id="Group_263" data-name="Group 263">
          <path id="Path_197" data-name="Path 197" d="M232.789,1458.216H220.5a1.986,1.986,0,0,1-1.921-2.045v-12.891h-6.157v12.891a1.986,1.986,0,0,1-1.921,2.045H198.215a1.986,1.986,0,0,1-1.921-2.045v-21.242a1.925,1.925,0,1,1,3.842,0v19.2h8.445v-12.891a1.984,1.984,0,0,1,1.921-2.045h10a1.984,1.984,0,0,1,1.921,2.045v12.891h8.447v-19.2a1.925,1.925,0,1,1,3.842,0v21.242a1.987,1.987,0,0,1-1.921,2.045Z" fill="#f2eee8"/>
        </g>
        <g id="Group_264" data-name="Group 264">
          <path id="Path_198" data-name="Path 198" d="M238.577,1439.9a1.819,1.819,0,0,1-1.114-.382L215.5,1422.778l-21.961,16.743a1.849,1.849,0,0,1-2.682-.473,2.132,2.132,0,0,1,.446-2.853l23.079-17.6a1.827,1.827,0,0,1,2.236,0l23.077,17.6a2.128,2.128,0,0,1,.444,2.853,1.883,1.883,0,0,1-1.566.855Z" fill="#f2eee8"/>
        </g>
      </g>
    </g>
    <path id="Color_Overlay" data-name="Color Overlay" d="M319,2091a1.986,1.986,0,0,1-1.921-2.046v-12.891H310.92v12.891A1.986,1.986,0,0,1,309,2091H296.712a1.985,1.985,0,0,1-1.921-2.046v-18.748l-2.751,2.1a1.848,1.848,0,0,1-2.681-.472,2.131,2.131,0,0,1,.445-2.853l23.079-17.6a1.828,1.828,0,0,1,2.237,0l23.077,17.6a2.128,2.128,0,0,1,.444,2.853,1.882,1.882,0,0,1-1.565.855,1.82,1.82,0,0,1-1.114-.383l-2.753-2.1v18.749a1.987,1.987,0,0,1-1.922,2.046Zm0-19.027a1.984,1.984,0,0,1,1.922,2.045v12.892h8.447v-19.2a2.248,2.248,0,0,1,.038-.408L314,2055.561,298.6,2067.306a2.154,2.154,0,0,1,.038.406v19.2h8.445v-12.892a1.983,1.983,0,0,1,1.921-2.045Z" fill="#1baf5d"/>
  </g>
</svg>
