<svg xmlns="http://www.w3.org/2000/svg" width="45" height="44.999" viewBox="0 0 45 44.999">
  <path id="Color_Overlay" data-name="Color Overlay" d="M781.077,2088.434a4.588,4.588,0,0,1-.077-.843c-.008-3.326,3.4-6.729,6.916-8.391a11.726,11.726,0,0,1,4.923-1.229,7.144,7.144,0,0,1,1.321.119v-13.428c0-.02,0-.039,0-.058v-8.846a1.911,1.911,0,0,1,1.453-1.858l28.033-6.847a1.9,1.9,0,0,1,2.349,1.856h0v26.122h-.022a4.767,4.767,0,0,1,.028.531c-.012,3.317-3.417,6.705-6.921,8.365a11.7,11.7,0,0,1-4.922,1.227c-2.7,0-4.634-1.366-5.043-3.568a4.583,4.583,0,0,1-.077-.842c-.008-3.325,3.4-6.728,6.916-8.39a11.728,11.728,0,0,1,4.927-1.227,7.138,7.138,0,0,1,1.314.117v-11.055l-24.232,5.917v15.771h-.028a4.591,4.591,0,0,1,.028.532c-.01,3.319-3.415,6.705-6.918,8.364a11.715,11.715,0,0,1-4.918,1.227C783.42,2092,781.485,2090.634,781.077,2088.434Zm8.457-5.778c-2.98,1.414-4.74,3.8-4.733,4.919a.949.949,0,0,0,.014.156c.063.354.851.447,1.308.447a8.086,8.086,0,0,0,3.3-.862c2.987-1.413,4.748-3.8,4.739-4.919a.935.935,0,0,0-.014-.156c-.067-.353-.854-.448-1.31-.448A8.108,8.108,0,0,0,789.534,2082.656Zm28.037-6.844c-2.979,1.411-4.74,3.8-4.733,4.917a.951.951,0,0,0,.014.156c.063.355.85.447,1.3.447a8.1,8.1,0,0,0,3.3-.862c2.985-1.413,4.748-3.8,4.739-4.918a.942.942,0,0,0-.014-.156c-.067-.355-.854-.447-1.306-.447A8.084,8.084,0,0,0,817.571,2075.812ZM797.96,2057.26v4.914l24.232-5.917v-4.916Z" transform="translate(-780.999 -2047)" fill="#9dacad"/>
</svg>
