<svg xmlns="http://www.w3.org/2000/svg" width="24" height="26" viewBox="0 0 24 26">
  <g id="Group_54" data-name="Group 54" transform="translate(-1260.534 -1244.199)">
    <g id="Group_47" data-name="Group 47">
      <path id="Path_29" data-name="Path 29" d="M1283.431,1266.97h-21.793a1.1,1.1,0,0,1-1.1-1.106v-13.921a7.744,7.744,0,0,1,7.724-7.744h8.552a7.743,7.743,0,0,1,7.724,7.744v13.921a1.1,1.1,0,0,1-1.1,1.106Zm-20.69-2.213h19.586v-12.815a5.532,5.532,0,0,0-5.517-5.532h-8.552a5.531,5.531,0,0,0-5.517,5.532v12.815Z" fill="#f2eee8"/>
    </g>
    <g id="Group_50" data-name="Group 50">
      <g id="Group_48" data-name="Group 48">
        <path id="Path_30" data-name="Path 30" d="M1266.1,1270.2c-2.073,0-3.31-.675-3.31-1.806v-1.515a1.1,1.1,0,1,1,2.207,0v.99a5.248,5.248,0,0,0,2.207,0v-.99a1.1,1.1,0,1,1,2.207,0v1.515c0,1.131-1.237,1.806-3.31,1.806Z" fill="#f2eee8"/>
      </g>
      <g id="Group_49" data-name="Group 49">
        <path id="Path_31" data-name="Path 31" d="M1278.969,1270.2c-2.073,0-3.31-.675-3.31-1.806v-1.515a1.1,1.1,0,1,1,2.207,0v.99a5.248,5.248,0,0,0,2.207,0v-.99a1.1,1.1,0,1,1,2.207,0v1.515c0,1.131-1.237,1.806-3.31,1.806Z" fill="#f2eee8"/>
      </g>
    </g>
    <g id="Group_51" data-name="Group 51">
      <path id="Path_32" data-name="Path 32" d="M1277.868,1249.64H1267.2a1.106,1.106,0,0,1,0-2.213h10.668a1.106,1.106,0,0,1,0,2.213Z" fill="#f2eee8"/>
    </g>
    <g id="Group_52" data-name="Group 52">
      <path id="Path_33" data-name="Path 33" d="M1267.293,1259.23a1.656,1.656,0,1,0,1.651,1.656,1.653,1.653,0,0,0-1.651-1.656Z" fill="#f2eee8"/>
      <path id="Path_34" data-name="Path 34" d="M1277.776,1259.23a1.656,1.656,0,1,0,1.651,1.656,1.653,1.653,0,0,0-1.651-1.656Z" fill="#f2eee8"/>
    </g>
    <g id="Group_53" data-name="Group 53">
      <path id="Path_35" data-name="Path 35" d="M1280.12,1258.443h-15.172a1.658,1.658,0,0,1-1.655-1.66v-4.84a1.659,1.659,0,0,1,1.655-1.659h15.172a1.66,1.66,0,0,1,1.655,1.659v4.84a1.66,1.66,0,0,1-1.655,1.66Zm-15.172-7.053a.554.554,0,0,0-.552.553v4.84a.553.553,0,0,0,.552.553h15.172a.553.553,0,0,0,.552-.553v-4.84a.553.553,0,0,0-.552-.553Z" fill="#f2eee8"/>
    </g>
  </g>
</svg>
