<svg xmlns="http://www.w3.org/2000/svg" width="18" height="19" viewBox="0 0 18 19">
  <g id="Vector_Smart_Object" data-name="Vector Smart Object" transform="translate(-1101 -469)">
    <g id="Vector_Smart_Object-2" data-name="Vector Smart Object" transform="translate(155.599 -440.222)">
      <g id="Group_196" data-name="Group 196">
        <g id="Group_189" data-name="Group 189">
          <path id="Path_125" data-name="Path 125" d="M962.573,925.863H946.228a.818.818,0,0,1-.828-.808V914.881a5.735,5.735,0,0,1,5.793-5.659h6.414a5.734,5.734,0,0,1,5.793,5.659v10.173a.817.817,0,0,1-.828.808Zm-15.517-1.617h14.69v-9.365a4.1,4.1,0,0,0-4.138-4.042h-6.414a4.1,4.1,0,0,0-4.138,4.042v9.365Z" fill="#f2eee8"/>
        </g>
        <g id="Group_192" data-name="Group 192">
          <g id="Group_190" data-name="Group 190">
            <path id="Path_126" data-name="Path 126" d="M949.572,928.222c-1.555,0-2.483-.493-2.483-1.32V925.8a.828.828,0,0,1,1.655,0v.724a4.036,4.036,0,0,0,1.655,0V925.8a.828.828,0,0,1,1.655,0V926.9c0,.826-.928,1.32-2.483,1.32Z" fill="#f2eee8"/>
          </g>
          <g id="Group_191" data-name="Group 191">
            <path id="Path_127" data-name="Path 127" d="M959.227,928.222c-1.555,0-2.483-.493-2.483-1.32V925.8a.828.828,0,0,1,1.655,0v.724a4.036,4.036,0,0,0,1.655,0V925.8a.828.828,0,0,1,1.655,0V926.9c0,.826-.928,1.32-2.483,1.32Z" fill="#f2eee8"/>
          </g>
        </g>
        <g id="Group_193" data-name="Group 193">
          <path id="Path_128" data-name="Path 128" d="M958.4,913.2h-8a.809.809,0,1,1,0-1.617h8a.809.809,0,1,1,0,1.617Z" fill="#f2eee8"/>
        </g>
        <g id="Group_194" data-name="Group 194">
          <path id="Path_129" data-name="Path 129" d="M950.47,920.207a1.211,1.211,0,1,0,1.238,1.21,1.224,1.224,0,0,0-1.238-1.21Z" fill="#f2eee8"/>
          <path id="Path_130" data-name="Path 130" d="M958.332,920.207a1.211,1.211,0,1,0,1.238,1.21,1.224,1.224,0,0,0-1.238-1.21Z" fill="#f2eee8"/>
        </g>
        <g id="Group_195" data-name="Group 195">
          <path id="Path_131" data-name="Path 131" d="M960.09,919.631H948.711a1.228,1.228,0,0,1-1.241-1.213v-3.537a1.228,1.228,0,0,1,1.241-1.213H960.09a1.229,1.229,0,0,1,1.241,1.213v3.537a1.229,1.229,0,0,1-1.241,1.213Zm-11.379-5.154a.41.41,0,0,0-.414.4v3.537a.41.41,0,0,0,.414.4H960.09a.409.409,0,0,0,.414-.4v-3.537a.41.41,0,0,0-.414-.4Z" fill="#f2eee8"/>
        </g>
      </g>
    </g>
    <path id="Color_Overlay" data-name="Color Overlay" d="M1112.343,486.68v-1.04h-4.689v1.04c0,.826-.928,1.319-2.483,1.319s-2.482-.493-2.482-1.319v-1.04h-.861a.818.818,0,0,1-.828-.809V474.659a5.734,5.734,0,0,1,5.793-5.659h6.413a5.734,5.734,0,0,1,5.793,5.659v10.173a.818.818,0,0,1-.827.809h-.864v1.04c0,.826-.927,1.319-2.482,1.319S1112.343,487.507,1112.343,486.68ZM1114,486.3a4.047,4.047,0,0,0,1.655,0v-.656H1114Zm-9.654,0a4.047,4.047,0,0,0,1.655,0v-.656h-1.655Zm-1.689-11.638v9.365h14.69v-9.365a4.1,4.1,0,0,0-4.138-4.043h-6.413A4.1,4.1,0,0,0,1102.655,474.659Zm10.036,6.536a1.239,1.239,0,1,1,1.24,1.211A1.224,1.224,0,0,1,1112.691,481.195Zm-7.861,0a1.239,1.239,0,1,1,1.239,1.211A1.224,1.224,0,0,1,1104.829,481.195Zm-.519-1.786a1.228,1.228,0,0,1-1.241-1.213v-3.537a1.229,1.229,0,0,1,1.241-1.213h11.38a1.23,1.23,0,0,1,1.241,1.213V478.2a1.229,1.229,0,0,1-1.241,1.213Zm-.414-4.75V478.2a.41.41,0,0,0,.414.4h11.38a.409.409,0,0,0,.414-.4v-3.537a.41.41,0,0,0-.414-.4h-11.38A.41.41,0,0,0,1103.9,474.659Zm2.1-1.683a.809.809,0,1,1,0-1.617h8a.809.809,0,1,1,0,1.617Z" fill="#fff"/>
  </g>
</svg>
