<svg xmlns="http://www.w3.org/2000/svg" width="24" height="26" viewBox="0 0 24 26">
  <path id="Color_Overlay" data-name="Color Overlay" d="M767.125,707.195v-1.423h-6.252v1.423c0,1.13-1.237,1.805-3.31,1.805s-3.31-.675-3.31-1.805v-1.423H753.1a1.105,1.105,0,0,1-1.1-1.107v-13.92A7.744,7.744,0,0,1,759.724,683h8.552A7.744,7.744,0,0,1,776,690.745v13.92a1.1,1.1,0,0,1-1.1,1.107h-1.151v1.423c0,1.13-1.237,1.805-3.31,1.805S767.125,708.325,767.125,707.195Zm2.207-.525a5.261,5.261,0,0,0,2.207,0v-.9h-2.207Zm-12.873,0a5.261,5.261,0,0,0,2.207,0v-.9h-2.207Zm-2.253-15.925v12.814h19.587V690.745a5.532,5.532,0,0,0-5.517-5.532h-8.552A5.533,5.533,0,0,0,754.206,690.745Zm13.382,8.943a1.652,1.652,0,1,1,1.653,1.656A1.653,1.653,0,0,1,767.588,699.688Zm-10.483,0a1.652,1.652,0,1,1,1.653,1.656A1.653,1.653,0,0,1,757.105,699.688Zm-.691-2.443a1.658,1.658,0,0,1-1.655-1.66v-4.84a1.658,1.658,0,0,1,1.655-1.66h15.172a1.66,1.66,0,0,1,1.655,1.66v4.84a1.66,1.66,0,0,1-1.655,1.66Zm-.552-6.5v4.84a.553.553,0,0,0,.552.553h15.172a.553.553,0,0,0,.552-.553v-4.84a.554.554,0,0,0-.552-.554H756.414A.554.554,0,0,0,755.862,690.745Zm2.8-2.3a1.106,1.106,0,0,1,0-2.212h10.668a1.106,1.106,0,0,1,0,2.212Z" transform="translate(-752 -683)" fill="#fff"/>
</svg>
