<svg xmlns="http://www.w3.org/2000/svg" width="24" height="19" viewBox="0 0 24 19">
  <g id="Vector_Smart_Object" data-name="Vector Smart Object" transform="translate(-898 -469)">
    <g id="Vector_Smart_Object-2" data-name="Vector Smart Object" transform="translate(806.559 -204.653)">
      <g id="Group_185" data-name="Group 185">
        <g id="Group_183" data-name="Group 183">
          <path id="Path_121" data-name="Path 121" d="M111.739,692.653h-5.9a.948.948,0,0,1-.922-.971v-6.123h-2.955v6.123a.948.948,0,0,1-.922.971h-5.9a.948.948,0,0,1-.922-.971v-10.09a.923.923,0,1,1,1.844,0v9.119h4.054v-6.123a.947.947,0,0,1,.922-.971h4.8a.947.947,0,0,1,.922.971v6.123h4.054v-9.119a.923.923,0,1,1,1.844,0v10.09a.948.948,0,0,1-.922.971Z" fill="#f2eee8"/>
        </g>
        <g id="Group_184" data-name="Group 184">
          <path id="Path_122" data-name="Path 122" d="M114.517,683.954a.879.879,0,0,1-.535-.182l-10.54-7.953L92.9,683.772a.893.893,0,0,1-1.287-.224,1.006,1.006,0,0,1,.214-1.355l11.078-8.358a.884.884,0,0,1,1.073,0l11.077,8.358a1,1,0,0,1,.213,1.355.906.906,0,0,1-.752.406Z" fill="#f2eee8"/>
        </g>
      </g>
    </g>
    <path id="Color_Overlay" data-name="Color Overlay" d="M912.4,488a.948.948,0,0,1-.922-.971v-6.124h-2.956v6.124a.948.948,0,0,1-.923.971h-5.9a.948.948,0,0,1-.922-.971v-8.906l-1.32,1a.894.894,0,0,1-1.288-.225,1.006,1.006,0,0,1,.214-1.354l11.078-8.358a.884.884,0,0,1,1.074,0l11.076,8.358a1,1,0,0,1,.213,1.354.906.906,0,0,1-.752.407.878.878,0,0,1-.535-.182l-1.321-1v8.906a.948.948,0,0,1-.923.971Zm0-9.038a.947.947,0,0,1,.922.971v6.124h4.055v-9.119a1.042,1.042,0,0,1,.018-.193L910,471.166l-7.394,5.579a1.042,1.042,0,0,1,.018.193v9.119h4.054v-6.124a.946.946,0,0,1,.922-.971Z" fill="#fff"/>
  </g>
</svg>
