<svg xmlns="http://www.w3.org/2000/svg" width="29" height="19" viewBox="0 0 29 19">
  <g id="Vector_Smart_Object" data-name="Vector Smart Object" transform="translate(-994 -469)">
    <g id="Vector_Smart_Object-2" data-name="Vector Smart Object" transform="translate(-46.79 -838.658)">
      <g id="Group_257" data-name="Group 257">
        <g id="Group_253" data-name="Group 253">
          <path id="Path_171" data-name="Path 171" d="M1054.973,1321.294a1.167,1.167,0,0,1-.463-.1l-13.021-5.659a1.157,1.157,0,0,1,0-2.126l13.021-5.659a1.165,1.165,0,0,1,.928,0l13.019,5.659a1.16,1.16,0,0,1,0,2.126l-13.019,5.659a1.175,1.175,0,0,1-.466.1Zm-10.111-6.818,10.111,4.394,10.111-4.394-10.111-4.394-10.111,4.394Z" fill="#f2eee8"/>
        </g>
        <g id="Group_254" data-name="Group 254">
          <path id="Path_172" data-name="Path 172" d="M1054.973,1326.659a18.238,18.238,0,0,1-10.187-3.162,1.158,1.158,0,0,1-.515-.962v-6.182a1.162,1.162,0,0,1,2.324,0v5.551a15.667,15.667,0,0,0,16.755,0v-5.551a1.162,1.162,0,0,1,2.324,0v6.182a1.161,1.161,0,0,1-.512.962,18.242,18.242,0,0,1-10.189,3.162Z" fill="#f2eee8"/>
        </g>
        <g id="Group_255" data-name="Group 255">
          <path id="Path_173" data-name="Path 173" d="M1068.627,1323.5a.581.581,0,0,1-.581-.58v-8.5a.581.581,0,0,1,1.162,0v8.5a.58.58,0,0,1-.581.58Z" fill="#f2eee8"/>
        </g>
        <g id="Group_256" data-name="Group 256">
          <path id="Path_174" data-name="Path 174" d="M1068.627,1324.081a1.16,1.16,0,0,1-1.162-1.159v-4.057a1.162,1.162,0,0,1,2.324,0v4.057a1.16,1.16,0,0,1-1.162,1.159Z" fill="#f2eee8"/>
        </g>
      </g>
    </g>
    <path id="Color_Overlay" data-name="Color Overlay" d="M998,484.839a1.16,1.16,0,0,1-.515-.962v-5.786l-2.782-1.209a1.157,1.157,0,0,1,0-2.126l13.021-5.659a1.165,1.165,0,0,1,.929,0l13.018,5.659a1.155,1.155,0,0,1,.615.634.58.58,0,0,1,.136.373V479.2a1.159,1.159,0,0,1,.581,1.005v4.056a1.162,1.162,0,0,1-2.324,0v-4.056a1.156,1.156,0,0,1,.581-1v-2.142l-2.371,1.03v5.785a1.161,1.161,0,0,1-.513.962,18,18,0,0,1-20.376,0Zm1.81-1.593a15.666,15.666,0,0,0,16.754,0V479.1l-7.911,3.438a1.168,1.168,0,0,1-.929,0l-7.915-3.439Zm-1.734-7.427,10.112,4.394,10.112-4.394-10.112-4.395Z" fill="#fff"/>
  </g>
</svg>
