<svg xmlns="http://www.w3.org/2000/svg" width="154" height="45" viewBox="0 0 154 45">
  <g id="Vector_Smart_Object" data-name="Vector Smart Object" transform="translate(-51.781 -86.237)">
    <path id="Path_179" data-name="Path 179" d="M87.469,104.451h-.007A14.545,14.545,0,0,0,88.687,98.6c0-8.048-6.508-12.359-14.535-12.359S59.617,90.549,59.617,98.6a14.544,14.544,0,0,0,1.225,5.855h-.007l.075.152c.154.34.319.675.5,1l12.721,25.634L86.881,105.63c.185-.337.356-.682.515-1.033Z" fill="#d1d3d4"/>
    <path id="Path_180" data-name="Path 180" d="M74.129,131.237l12.752-25.608c.185-.336.356-.681.514-1.032l.074-.147h-.007A14.542,14.542,0,0,0,88.687,98.6c0-8.048-6.508-12.359-14.535-12.359" fill="#e6e7e8"/>
    <path id="Path_181" data-name="Path 181" d="M74.129,98.764c0,6.4.395,11.6,6.783,11.6a11.6,11.6,0,1,0-6.467-21.213l1,2.363s1.1,1.331,2.976-.275l.178,1.134-4.452,6.395" fill="#1baf5d"/>
    <path id="Path_182" data-name="Path 182" d="M90.167,95.409l2.108,1.169,4.221,11.4s-12.174,3.1-15.584,2.383a3.752,3.752,0,0,1-3.345-3.563s14.072,5.259,12.6-11.389" fill="#1baf5d"/>
    <path id="Path_183" data-name="Path 183" d="M74.149,98.764c0,6.4-.395,11.6-6.784,11.6a11.6,11.6,0,1,1,6.468-21.213l-1,2.363s-1.1,1.331-2.976-.275l-.179,1.134,4.453,6.395" fill="#8dc63f"/>
    <path id="Path_184" data-name="Path 184" d="M74.149,98.764a6.784,6.784,0,1,1-6.784-6.8,6.792,6.792,0,0,1,6.784,6.8" fill="#8dc63f"/>
    <path id="Path_185" data-name="Path 185" d="M67.365,93.18a5.583,5.583,0,1,0,5.57,5.583,5.582,5.582,0,0,0-5.57-5.583m0,13.6a8.018,8.018,0,1,1,8-8.017,8.017,8.017,0,0,1-8,8.017" fill="#fff"/>
    <path id="Path_186" data-name="Path 186" d="M87.7,98.764a6.784,6.784,0,1,1-6.783-6.8,6.792,6.792,0,0,1,6.783,6.8" fill="#1baf5d"/>
    <path id="Path_187" data-name="Path 187" d="M80.915,93.18a5.583,5.583,0,1,0,5.569,5.583,5.582,5.582,0,0,0-5.569-5.583m0,13.6a8.018,8.018,0,1,1,8-8.017,8.018,8.018,0,0,1-8,8.017" fill="#fff"/>
    <path id="Path_188" data-name="Path 188" d="M70.711,98.764a3.346,3.346,0,1,1-3.346-3.355,3.35,3.35,0,0,1,3.346,3.355"/>
    <path id="Path_189" data-name="Path 189" d="M84.173,98.764a3.346,3.346,0,1,1-3.346-3.355,3.35,3.35,0,0,1,3.346,3.355"/>
    <path id="Path_190" data-name="Path 190" d="M58.11,95.409,56,96.579l-4.222,11.4s12.174,3.1,15.584,2.383a3.752,3.752,0,0,0,3.346-3.563s-14.073,5.259-12.6-11.389" fill="#8dc63f"/>
    <path id="Path_191" data-name="Path 191" d="M111.048,113.5a7.222,7.222,0,0,0,1.73-.194,6.681,6.681,0,0,0,1.669-.689v-9.7a7.524,7.524,0,0,0-1.376-.465,6.843,6.843,0,0,0-1.56-.17,3.892,3.892,0,0,0-1.862.434,4.149,4.149,0,0,0-1.367,1.169,5.337,5.337,0,0,0-.85,1.72,7.256,7.256,0,0,0-.293,2.084,9.686,9.686,0,0,0,.239,2.161,6.371,6.371,0,0,0,.727,1.858,4,4,0,0,0,1.22,1.3,3.041,3.041,0,0,0,1.723.488m-.031-14.251a6.854,6.854,0,0,1,2.04.263,4.875,4.875,0,0,1,1.391.666V91.967h4.017v18.511q0,.65.062,1.379t.2,1.479q.139.752.356,1.5a9.848,9.848,0,0,0,.526,1.409h-3.755a2.13,2.13,0,0,1-.317-.325q-.162-.2-.317-.434a4.308,4.308,0,0,1-.479-.976,5.979,5.979,0,0,1-1.924,1.511,5.564,5.564,0,0,1-2.48.534,7.132,7.132,0,0,1-3.129-.666,6.837,6.837,0,0,1-2.341-1.828,8.1,8.1,0,0,1-1.46-2.757,11.458,11.458,0,0,1-.5-3.454,9.458,9.458,0,0,1,.556-3.222,8.407,8.407,0,0,1,1.607-2.742,7.934,7.934,0,0,1,2.55-1.913,7.753,7.753,0,0,1,3.4-.72" fill="#4c5b6a"/>
    <path id="Path_192" data-name="Path 192" d="M126.323,99.511v11.463a3.066,3.066,0,0,0,.193,1.146,2.142,2.142,0,0,0,.519.782,1.994,1.994,0,0,0,.764.442,3.131,3.131,0,0,0,.95.139,10.309,10.309,0,0,0,2.364-.287,7.47,7.47,0,0,0,2.209-.891V99.511h4.018v13.817a9.964,9.964,0,0,0,.093,1.154q.092.751.278,1.758h-3.8c-.022-.062-.055-.178-.1-.349s-.093-.354-.139-.55-.091-.382-.132-.558-.067-.3-.078-.387a8,8,0,0,1-1.181.86,9.484,9.484,0,0,1-1.376.682,8.9,8.9,0,0,1-1.445.442,6.659,6.659,0,0,1-1.39.155,7.3,7.3,0,0,1-2.774-.457,4.52,4.52,0,0,1-1.769-1.247,4.681,4.681,0,0,1-.943-1.859,9.087,9.087,0,0,1-.278-2.293V99.511Z" fill="#4c5b6a"/>
    <path id="Path_193" data-name="Path 193" d="M140.9,91.967h4.017v8.813a9.235,9.235,0,0,1,.765-.558,5.59,5.59,0,0,1,.959-.495,6.639,6.639,0,0,1,1.174-.349,6.9,6.9,0,0,1,1.383-.132,8.606,8.606,0,0,1,2.712.4,5.688,5.688,0,0,1,2.062,1.177,5.116,5.116,0,0,1,1.306,1.913,6.9,6.9,0,0,1,.456,2.579V116.24h-4.018V105.382A3.082,3.082,0,0,0,150.9,103a3.234,3.234,0,0,0-2.272-.752,7.428,7.428,0,0,0-.9.054,6.918,6.918,0,0,0-.888.171q-.449.116-.92.279t-1,.379v13.1H140.9Z" fill="#4c5b6a"/>
    <path id="Path_194" data-name="Path 194" d="M166.716,113.87a2.853,2.853,0,0,0,1.763-.558,4.311,4.311,0,0,0,1.22-1.472,7.708,7.708,0,0,0,.711-2.06,11.774,11.774,0,0,0,.233-2.339,9.948,9.948,0,0,0-.21-2.084,5.021,5.021,0,0,0-.687-1.719,3.573,3.573,0,0,0-1.236-1.17,3.649,3.649,0,0,0-1.838-.434,3.29,3.29,0,0,0-1.723.449,3.743,3.743,0,0,0-1.244,1.232,6.09,6.09,0,0,0-.749,1.859,10.141,10.141,0,0,0-.254,2.331,9.926,9.926,0,0,0,.224,2.076,6.715,6.715,0,0,0,.711,1.92,4.314,4.314,0,0,0,1.251,1.417,3.049,3.049,0,0,0,1.83.55m.14,2.788a9.553,9.553,0,0,1-3.608-.635,7.118,7.118,0,0,1-2.635-1.8A7.761,7.761,0,0,1,159,111.4a11.609,11.609,0,0,1-.548-3.679,10.217,10.217,0,0,1,.51-3.253,7.6,7.6,0,0,1,1.545-2.695,7.34,7.34,0,0,1,2.6-1.844,9.184,9.184,0,0,1,3.686-.682,8.9,8.9,0,0,1,3.647.682,6.851,6.851,0,0,1,2.518,1.866,7.673,7.673,0,0,1,1.461,2.788,12.14,12.14,0,0,1,.471,3.431,10.148,10.148,0,0,1-.548,3.354,8.129,8.129,0,0,1-1.592,2.749,7.507,7.507,0,0,1-2.534,1.859,7.992,7.992,0,0,1-3.361.682" fill="#4c5b6a"/>
    <path id="Path_195" data-name="Path 195" d="M185.252,113.87a2.849,2.849,0,0,0,1.762-.558,4.3,4.3,0,0,0,1.221-1.472,7.709,7.709,0,0,0,.711-2.06,11.774,11.774,0,0,0,.233-2.339,10.026,10.026,0,0,0-.209-2.084,5.022,5.022,0,0,0-.688-1.719,3.568,3.568,0,0,0-1.236-1.17,3.649,3.649,0,0,0-1.838-.434,3.288,3.288,0,0,0-1.723.449,3.739,3.739,0,0,0-1.244,1.232,6.1,6.1,0,0,0-.749,1.859,10.109,10.109,0,0,0-.254,2.331,9.888,9.888,0,0,0,.224,2.076,6.765,6.765,0,0,0,.71,1.92,4.321,4.321,0,0,0,1.251,1.417,3.053,3.053,0,0,0,1.831.55m.139,2.788a9.557,9.557,0,0,1-3.608-.635,7.112,7.112,0,0,1-2.635-1.8,7.761,7.761,0,0,1-1.615-2.819,11.608,11.608,0,0,1-.549-3.679,10.234,10.234,0,0,1,.511-3.253,7.608,7.608,0,0,1,1.544-2.695,7.348,7.348,0,0,1,2.6-1.844,9.187,9.187,0,0,1,3.686-.682,8.909,8.909,0,0,1,3.647.682,6.854,6.854,0,0,1,2.518,1.866,7.663,7.663,0,0,1,1.46,2.788,12.12,12.12,0,0,1,.472,3.431,10.118,10.118,0,0,1-.549,3.354,8.127,8.127,0,0,1-1.592,2.749,7.493,7.493,0,0,1-2.534,1.859,7.986,7.986,0,0,1-3.361.682" fill="#4c5b6a"/>
    <path id="Path_196" data-name="Path 196" d="M194.378,100.347l2.457-.836,1.05-4.322h2.967v4.322h4.095l-.37,2.881h-3.724v8.535a5.885,5.885,0,0,0,.1,1.193,2.342,2.342,0,0,0,.286.774,1.043,1.043,0,0,0,.463.418,1.533,1.533,0,0,0,.633.125,6.19,6.19,0,0,0,1.12-.117,8.108,8.108,0,0,0,1.4-.411l.927,1.968a9,9,0,0,1-2.186,1.27,5.749,5.749,0,0,1-2.093.418,6.137,6.137,0,0,1-2.288-.364,3.412,3.412,0,0,1-1.429-1.038,3.917,3.917,0,0,1-.741-1.634,10.137,10.137,0,0,1-.209-2.153v-8.984h-2.457Z" fill="#4c5b6a"/>
  </g>
</svg>
