<svg xmlns="http://www.w3.org/2000/svg" width="19" height="19" viewBox="0 0 19 19">
  <g id="Vector_Smart_Object" data-name="Vector Smart Object" transform="translate(-1048 -469)">
    <g id="Vector_Smart_Object-2" data-name="Vector Smart Object" transform="translate(770.864 -837.723)">
      <g id="Group_235" data-name="Group 235">
        <g id="Group_226" data-name="Group 226">
          <g id="Group_221" data-name="Group 221">
            <g id="Group_219" data-name="Group 219">
              <path id="Path_151" data-name="Path 151" d="M279.3,1325.723a1.962,1.962,0,0,1-2.131-1.505c-.28-1.512,1.279-3.137,2.887-3.9a4.953,4.953,0,0,1,2.078-.519,1.961,1.961,0,0,1,2.13,1.506c.281,1.513-1.279,3.137-2.888,3.9a4.94,4.94,0,0,1-2.077.518Zm2.835-4.31a3.424,3.424,0,0,0-1.395.365c-1.32.626-2.074,1.7-1.992,2.143.026.149.359.189.552.189a3.413,3.413,0,0,0,1.393-.364c1.323-.626,2.077-1.7,1.995-2.143-.028-.149-.36-.189-.553-.189Z" fill="#f2eee8"/>
            </g>
            <g id="Group_220" data-name="Group 220">
              <path id="Path_152" data-name="Path 152" d="M284.3,1321.449h-1.6V1310.42h1.6v11.029Z" fill="#f2eee8"/>
            </g>
          </g>
          <g id="Group_224" data-name="Group 224">
            <g id="Group_222" data-name="Group 222">
              <path id="Path_153" data-name="Path 153" d="M291.135,1322.833a1.96,1.96,0,0,1-2.129-1.506c-.28-1.511,1.279-3.137,2.887-3.9a4.952,4.952,0,0,1,2.08-.518,1.961,1.961,0,0,1,2.13,1.506c.279,1.511-1.281,3.136-2.89,3.9a4.941,4.941,0,0,1-2.078.518Zm2.838-4.309a3.411,3.411,0,0,0-1.4.365c-1.32.625-2.074,1.7-1.992,2.142.026.15.359.189.55.189a3.422,3.422,0,0,0,1.395-.364c1.322-.626,2.077-1.7,1.995-2.143-.028-.15-.36-.189-.551-.189Z" fill="#f2eee8"/>
            </g>
            <g id="Group_223" data-name="Group 223">
              <path id="Path_154" data-name="Path 154" d="M296.133,1318.559h-1.6v-11.03h1.6v11.03Z" fill="#f2eee8"/>
            </g>
          </g>
          <g id="Group_225" data-name="Group 225">
            <path id="Path_155" data-name="Path 155" d="M283.494,1314.963a.8.8,0,0,1-.5-.172.812.812,0,0,1-.306-.635v-3.735a.806.806,0,0,1,.613-.784l11.836-2.891a.8.8,0,0,1,.992.784v3.736a.8.8,0,0,1-.612.784l-11.836,2.891a.808.808,0,0,1-.19.023Zm.8-3.908v2.075l10.231-2.5v-2.076l-10.231,2.5Z" fill="#f2eee8"/>
          </g>
        </g>
        <g id="Group_234" data-name="Group 234">
          <g id="Group_229" data-name="Group 229">
            <g id="Group_227" data-name="Group 227">
              <path id="Path_156" data-name="Path 156" d="M279.3,1325.723a1.962,1.962,0,0,1-2.131-1.505c-.28-1.512,1.279-3.137,2.887-3.9a4.953,4.953,0,0,1,2.078-.519,1.961,1.961,0,0,1,2.13,1.506c.281,1.513-1.279,3.137-2.888,3.9a4.94,4.94,0,0,1-2.077.518Zm2.835-4.31a3.424,3.424,0,0,0-1.395.365c-1.32.626-2.074,1.7-1.992,2.143.026.149.359.189.552.189a3.413,3.413,0,0,0,1.393-.364c1.323-.626,2.077-1.7,1.995-2.143-.028-.149-.36-.189-.553-.189Z" fill="#f2eee8"/>
            </g>
            <g id="Group_228" data-name="Group 228">
              <path id="Path_157" data-name="Path 157" d="M284.3,1321.449h-1.6V1310.42h1.6v11.029Z" fill="#f2eee8"/>
            </g>
          </g>
          <g id="Group_232" data-name="Group 232">
            <g id="Group_230" data-name="Group 230">
              <path id="Path_158" data-name="Path 158" d="M291.135,1322.833a1.96,1.96,0,0,1-2.129-1.506c-.28-1.511,1.279-3.137,2.887-3.9a4.952,4.952,0,0,1,2.08-.518,1.961,1.961,0,0,1,2.13,1.506c.279,1.511-1.281,3.136-2.89,3.9a4.941,4.941,0,0,1-2.078.518Zm2.838-4.309a3.411,3.411,0,0,0-1.4.365c-1.32.625-2.074,1.7-1.992,2.142.026.15.359.189.55.189a3.422,3.422,0,0,0,1.395-.364c1.322-.626,2.077-1.7,1.995-2.143-.028-.15-.36-.189-.551-.189Z" fill="#f2eee8"/>
            </g>
            <g id="Group_231" data-name="Group 231">
              <path id="Path_159" data-name="Path 159" d="M296.133,1318.559h-1.6v-11.03h1.6v11.03Z" fill="#f2eee8"/>
            </g>
          </g>
          <g id="Group_233" data-name="Group 233">
            <path id="Path_160" data-name="Path 160" d="M283.494,1314.963a.8.8,0,0,1-.5-.172.812.812,0,0,1-.306-.635v-3.735a.806.806,0,0,1,.613-.784l11.836-2.891a.8.8,0,0,1,.992.784v3.736a.8.8,0,0,1-.612.784l-11.836,2.891a.808.808,0,0,1-.19.023Zm.8-3.908v2.075l10.231-2.5v-2.076l-10.231,2.5Z" fill="#f2eee8"/>
          </g>
        </g>
      </g>
    </g>
    <path id="Color_Overlay" data-name="Color Overlay" d="M1048.033,486.5a1.983,1.983,0,0,1-.032-.357c0-1.4,1.437-2.84,2.92-3.542a4.93,4.93,0,0,1,2.078-.519,3.075,3.075,0,0,1,.558.049V472.7a.806.806,0,0,1,.613-.785l11.836-2.892a.8.8,0,0,1,.992.784h0v11.029h-.01a2.008,2.008,0,0,1,.012.207c.007,1.407-1.436,2.846-2.921,3.549a4.939,4.939,0,0,1-2.079.518,1.875,1.875,0,0,1-2.161-1.861c0-1.4,1.437-2.841,2.92-3.543a4.955,4.955,0,0,1,2.08-.517,3.12,3.12,0,0,1,.554.049v-4.667l-10.231,2.5v6.658h-.012a2.011,2.011,0,0,1,.012.208c.008,1.407-1.435,2.845-2.921,3.549a4.956,4.956,0,0,1-2.076.518A1.961,1.961,0,0,1,1048.033,486.5Zm3.57-2.441c-1.257.6-2,1.606-2,2.077a.5.5,0,0,0,.006.067c.026.149.359.188.552.188a3.414,3.414,0,0,0,1.393-.365c1.261-.6,2-1.6,2-2.076a.449.449,0,0,0-.006-.065c-.028-.15-.36-.191-.553-.191A3.435,3.435,0,0,0,1051.6,484.054Zm11.839-2.89c-1.258.6-2,1.606-2,2.076a.486.486,0,0,0,.006.066c.026.15.358.189.55.189a3.419,3.419,0,0,0,1.4-.364c1.26-.6,2-1.6,2-2.077a.5.5,0,0,0-.006-.066c-.029-.15-.361-.189-.552-.189A3.436,3.436,0,0,0,1063.442,481.164Zm-8.281-7.833v2.074l10.231-2.5v-2.075Z" fill="#fff"/>
  </g>
</svg>
