<svg xmlns="http://www.w3.org/2000/svg" width="16.001" height="19" viewBox="0 0 16.001 19">
  <g id="Vector_Smart_Object" data-name="Vector Smart Object" transform="translate(-951 -469)">
    <g id="Vector_Smart_Object-2" data-name="Vector Smart Object" transform="translate(110.281 -579.655)">
      <g id="Group_211" data-name="Group 211">
        <g id="Group_205" data-name="Group 205">
          <path id="Path_139" data-name="Path 139" d="M854.617,1062.112a.9.9,0,0,1-.374-.081,12.328,12.328,0,0,0-1.986-.7l.46-1.62a14.342,14.342,0,0,1,1.473.469,7.624,7.624,0,0,0,.6-2.972c0-3.788-2.723-6.87-6.069-6.87s-6.067,3.082-6.067,6.87a7.584,7.584,0,0,0,.6,2.971,14.583,14.583,0,0,1,1.471-.468l.46,1.62a12.3,12.3,0,0,0-1.986.7.894.894,0,0,1-1.147-.361,9.166,9.166,0,0,1-1.146-4.464c0-4.714,3.507-8.55,7.818-8.55s7.82,3.835,7.82,8.55a9.158,9.158,0,0,1-1.148,4.465.884.884,0,0,1-.773.442Z" fill="#f2eee8"/>
        </g>
        <g id="Group_206" data-name="Group 206">
          <path id="Path_140" data-name="Path 140" d="M848.718,1063.087a3.694,3.694,0,0,1-.441-.025c-2.315-.245-4.06-2.337-4.786-5.738a7.16,7.16,0,0,1-.13-1.041.41.41,0,0,1,.118-.312.447.447,0,0,1,.318-.132h2.4l.393-2.7a.441.441,0,0,1,.868,0l.393,2.7h.614l.131-1.267a.432.432,0,0,1,.434-.379h0a.431.431,0,0,1,.436.379l.134,1.267h4.039a.441.441,0,0,1,.318.132.4.4,0,0,1,.12.312,7.2,7.2,0,0,1-.131,1.037,8.946,8.946,0,0,1-2,4.285l-.01.012c-.068.073-.14.141-.21.208l-.394-.217.313.293c-.152.139-.248.213-.346.288l-.347-.27.267.333c-.1.077-.208.143-.315.208l-.074.049c-.1.06-.207.113-.316.165l-.106.052c-.082.039-.192.078-.3.117l-.086.035c-.083.027-.16.047-.239.067l-.224-.377.127.4c-.009,0-.081.022-.091.024-.094.02-.186.034-.282.047l-.151.022c-.116.013-.235.017-.352.019l-.086.005Zm.339-.859.188.4-.062-.416c.074-.009.144-.019.214-.034l.208.38-.113-.406c.121-.031.18-.046.237-.065.163-.06.243-.09.32-.125.156-.077.238-.117.319-.165.151-.094.232-.148.314-.208.149-.115.228-.176.306-.246l.092-.087c.084-.08.144-.138.2-.2h0l.006-.006a8.246,8.246,0,0,0,1.8-3.892c.031-.152.057-.31.077-.476h-3.958a.46.46,0,0,1-.173-.034.449.449,0,0,1-.172.034h-1.39a.429.429,0,0,1-.432-.362l-.012-.082-.011.082a.432.432,0,0,1-.434.362h-2.307c.02.167.046.324.077.48.644,3.016,2.112,4.866,4.023,5.07a3.207,3.207,0,0,0,.344.019c.159-.007.25-.008.341-.019Z" fill="#f2eee8"/>
        </g>
        <g id="Group_209" data-name="Group 209">
          <g id="Group_207" data-name="Group 207">
            <path id="Path_141" data-name="Path 141" d="M842.469,1067.656h-1.751c0-3.129,2.825-5.674,6.3-5.674v1.68a4.3,4.3,0,0,0-4.547,3.994Z" fill="#f2eee8"/>
          </g>
          <g id="Group_208" data-name="Group 208">
            <path id="Path_142" data-name="Path 142" d="M856.719,1067.656h-1.751a4.3,4.3,0,0,0-4.547-3.994v-1.68c3.473,0,6.3,2.545,6.3,5.674Z" fill="#f2eee8"/>
          </g>
        </g>
        <g id="Group_210" data-name="Group 210">
          <path id="Path_143" data-name="Path 143" d="M846.871,1057.3a.493.493,0,1,0,.513.492.5.5,0,0,0-.513-.492Z" fill="#f2eee8"/>
          <path id="Path_144" data-name="Path 144" d="M850.564,1057.3a.493.493,0,1,0,.513.492.5.5,0,0,0-.513-.492Z" fill="#f2eee8"/>
        </g>
      </g>
    </g>
    <path id="Color_Overlay" data-name="Color Overlay" d="M965.249,488a4.3,4.3,0,0,0-4.547-3.994v-.944l-.017.008c-.082.039-.192.078-.3.117l-.086.035c-.083.027-.16.047-.239.068l-.224-.377.127.4-.091.023c-.094.02-.187.033-.283.047l-.15.022c-.116.013-.235.017-.352.02l-.086.005a3.616,3.616,0,0,1-.442-.026,4.115,4.115,0,0,1-1.259-.338v.939A4.3,4.3,0,0,0,952.751,488H951a5.893,5.893,0,0,1,5.247-5.6,5.62,5.62,0,0,1-.827-.87l.04.139a12.3,12.3,0,0,0-1.985.7.894.894,0,0,1-1.148-.361,9.173,9.173,0,0,1-1.146-4.464c0-4.714,3.507-8.55,7.818-8.55s7.82,3.836,7.82,8.55a9.156,9.156,0,0,1-1.148,4.465.882.882,0,0,1-.773.442.892.892,0,0,1-.374-.082,12.362,12.362,0,0,0-1.985-.7l.041-.148q-.171.223-.358.423l-.01.012c-.068.073-.14.141-.211.209l-.393-.217.313.293c-.07.063-.128.113-.18.157A5.9,5.9,0,0,1,967,488Zm-5.723-5.032-.062-.416c.074-.009.144-.019.214-.034l.207.381-.112-.406c.121-.031.179-.047.237-.065.163-.06.244-.09.319-.125.157-.077.239-.117.319-.165.151-.095.232-.148.315-.208.148-.114.228-.176.306-.246l.092-.087c.085-.08.144-.138.2-.2l.006-.006a8.248,8.248,0,0,0,1.8-3.892c.031-.152.057-.31.077-.476h-3.958a.447.447,0,0,1-.174-.034.439.439,0,0,1-.173.034h-1.39a.429.429,0,0,1-.433-.362l-.013-.082-.011.082a.433.433,0,0,1-.435.362h-2.307c.02.167.047.324.077.48.644,3.016,2.111,4.866,4.022,5.07a3.209,3.209,0,0,0,.345.019c.159-.006.249-.008.34-.019Zm1.772-.617.047,0-.116-.091Zm-1.551-7.435.134,1.266h4.039a.444.444,0,0,1,.318.132.4.4,0,0,1,.12.312,7.135,7.135,0,0,1-.131,1.038,11.522,11.522,0,0,1-.821,2.5q.545.159,1.066.356a7.635,7.635,0,0,0,.6-2.972c0-3.788-2.723-6.87-6.069-6.87s-6.068,3.082-6.068,6.87a7.581,7.581,0,0,0,.6,2.971c.346-.13.7-.249,1.064-.355a11.358,11.358,0,0,1-.822-2.5,7.227,7.227,0,0,1-.13-1.041.41.41,0,0,1,.119-.312.449.449,0,0,1,.318-.132h2.4l.393-2.7a.441.441,0,0,1,.868,0l.393,2.7h.614l.13-1.266a.439.439,0,0,1,.87,0Zm.585,3.226a.513.513,0,1,1,.513.492A.5.5,0,0,1,960.332,478.141Zm-3.693,0a.513.513,0,1,1,.513.492A.5.5,0,0,1,956.64,478.141Z" fill="#fff"/>
  </g>
</svg>
