<svg height="512" width="512" xmlns="http://www.w3.org/2000/svg"><path d="M53.165 28.156h64.27v132.308h-64.27z" fill="#fccb88"/><path d="M79.821 167.966v303.753H432.18V167.966L256 74.706z" fill="#fccb88"/><path d="M106.346 282.532c0-51.459 10.09-100.136 28.045-143.453L79.82 167.966v303.752h95.283c-42.512-45.906-68.757-109.313-68.757-189.186z" fill="#fab659"/><path d="M74.531 69.793a91.368 91.368 0 0110.002-41.638H53.165v132.308h64.27v-12.595c-25.875-16.87-42.904-45.54-42.904-78.075z" fill="#fab659"/><g fill="#ff9dd3"><path d="M475.972 148.535L277.896 28.423a42.227 42.227 0 00-43.792-.001L36.028 148.535c-11.351 6.883-14.973 21.665-8.09 33.017l18.866 31.111c6.883 11.351 21.665 14.973 33.017 8.09L256 113.918l176.18 106.834c11.351 6.883 26.133 3.261 33.017-8.09l18.865-31.11c6.883-11.351 3.261-26.133-8.09-33.017zM440.683 438.937H71.317c-10.923 0-19.777 8.855-19.777 19.777v26.009c0 10.923 8.854 19.777 19.777 19.777h369.366c10.923 0 19.777-8.854 19.777-19.777v-26.009c0-10.922-8.854-19.777-19.777-19.777zM122.713 7.5H47.886c-6.798 0-12.308 5.51-12.308 12.308v16.695c0 6.798 5.51 12.308 12.308 12.308h74.827c6.798 0 12.308-5.51 12.308-12.308V19.808c0-6.797-5.511-12.308-12.308-12.308z"/></g><path d="M179.003 61.836L36.028 148.535c-11.351 6.883-14.973 21.666-8.09 33.017l18.865 31.111c6.883 11.352 21.665 14.973 33.017 8.09l35.636-21.609c11.58-51.944 33.714-98.84 63.547-137.308zM149.533 438.937H71.317c-10.923 0-19.777 8.854-19.777 19.777v26.009c0 10.922 8.854 19.777 19.777 19.777h140.815c-24.448-17.716-45.695-39.606-62.599-65.563zM98.857 7.5H47.886c-6.798 0-12.308 5.511-12.308 12.308v16.695c0 6.797 5.51 12.308 12.308 12.308h29.069C80.621 33.204 88.291 19.079 98.857 7.5z" fill="#ff88ca"/><g><path d="M294.087 232.785a8.64 8.64 0 00-.081-.204c-1.358-3.305-4.559-5.407-8.119-5.435a8.74 8.74 0 00-8.176 5.619l-21.034 55.228a7.5 7.5 0 0014.017 5.338l3.399-8.924h23.441l3.36 8.903a7.504 7.504 0 007.019 4.854c5.205 0 8.875-5.223 7.016-10.15zm-14.279 36.623l6.062-15.915 6.006 15.915zM163.932 242.708c7.618-2.295 14.733 3.294 14.957 3.473a7.5 7.5 0 009.611-11.517c-.537-.452-13.336-11.005-28.894-6.319-16.844 5.074-19.799 25.732-6.465 34.426 1.995 1.299 15.433 6.49 17.797 7.362 1.825.673 7.723 3.172 7.027 7.071-.523 2.929-4.143 5.958-9.295 5.958-5.429 0-10.649-2.183-13.963-5.84a7.5 7.5 0 00-11.115 10.073c6.201 6.842 15.342 10.767 25.078 10.767 25.471 0 35.568-31.734 7.46-42.103-6.795-2.506-13.127-5.234-15.161-6.123-2.119-1.771-1.546-5.87 2.963-7.228zM366.943 228.503a7.5 7.5 0 00-10.377 2.194l-11.47 17.62-11.603-17.77a7.5 7.5 0 10-12.559 8.2l16.667 25.525-.065 26.372a7.5 7.5 0 007.481 7.518h.019a7.501 7.501 0 007.5-7.481l.065-26.397 16.537-25.403a7.502 7.502 0 00-2.195-10.378zM226.506 298.163a7.5 7.5 0 007.5-7.5v-48.516h8.03a7.5 7.5 0 000-15H211.1a7.5 7.5 0 000 15h7.905v48.516a7.502 7.502 0 007.501 7.5zM312.119 330.976l-9.563 33.548c-13.352-45.25-9.064-31.116-10.003-33.888-2.849-8.49-15.208-7.738-16.933 1.219l-9.846 54.549a7.5 7.5 0 0014.762 2.664l5.17-28.647 8.56 29.013a8.75 8.75 0 008.392 6.241h.045a8.752 8.752 0 008.372-6.319l8.263-28.985 5.499 28.774a7.5 7.5 0 1014.733-2.815l-10.446-54.656a8.77 8.77 0 00-8.095-7.001c-4.159-.236-7.817 2.486-8.91 6.303zM166.558 395.673a7.5 7.5 0 007.5-7.5v-56.016a7.5 7.5 0 00-15 0v19.547h-23.764v-19.547a7.5 7.5 0 00-15 0v56.016a7.5 7.5 0 0015 0v-21.469h23.764v21.469a7.5 7.5 0 007.5 7.5zM384.206 340.168a7.5 7.5 0 000-15h-23.388a7.5 7.5 0 00-7.5 7.5v55.505a7.5 7.5 0 007.5 7.5h23.388a7.5 7.5 0 000-15h-15.888V367.92h14.163a7.5 7.5 0 000-15h-14.163v-12.752zM186.78 360.165c0 19.579 15.929 35.508 35.508 35.508s35.508-15.929 35.508-35.508-15.929-35.508-35.508-35.508c-19.58 0-35.508 15.928-35.508 35.508zm35.508-20.508c11.308 0 20.508 9.2 20.508 20.508 0 11.309-9.2 20.508-20.508 20.508s-20.508-9.2-20.508-20.508c0-11.309 9.2-20.508 20.508-20.508z"/><path d="M40.391 216.551c6.636 10.944 19.226 16.785 31.93 14.775v200.111h-1.004c-15.041 0-27.277 12.236-27.277 27.277v26.009C44.04 499.764 56.277 512 71.317 512h369.366c15.041 0 27.277-12.237 27.277-27.277v-26.009c0-15.041-12.236-27.277-27.277-27.277h-1.003v-200.11c12.676 2.005 25.282-3.813 31.93-14.776l18.865-31.11c9.017-14.869 4.255-34.302-10.614-43.318l-49.106-29.778a7.5 7.5 0 00-7.778 12.826l49.106 29.778c7.796 4.728 10.293 14.917 5.565 22.715l-18.865 31.11c-4.728 7.796-14.917 10.293-22.715 5.565L259.889 107.504a7.5 7.5 0 00-7.777 0l-103.287 62.632a7.5 7.5 0 00-2.524 10.302 7.5 7.5 0 0010.302 2.524L256 122.688l168.68 102.287v206.462H87.321V224.975l43.96-26.657a7.499 7.499 0 002.524-10.302 7.5 7.5 0 00-10.302-2.524l-47.572 28.847c-7.798 4.728-17.986 2.231-22.715-5.565L34.35 177.663c-4.728-7.797-2.231-17.987 5.565-22.715L237.992 34.835c11.105-6.735 24.905-6.735 36.014.001l123.876 75.118a7.5 7.5 0 007.778-12.826L281.785 22.01c-15.907-9.646-35.667-9.646-51.569 0L124.934 85.851V56.178c9.879-1.109 17.586-9.505 17.586-19.675V19.808C142.521 8.886 133.635 0 122.713 0H47.886C36.963 0 28.078 8.886 28.078 19.808v16.695c0 10.17 7.708 18.566 17.587 19.675v77.742l-13.525 8.201c-14.869 9.017-19.63 28.449-10.614 43.318zM452.96 458.714v26.009c0 6.77-5.507 12.277-12.277 12.277H71.317c-6.77 0-12.277-5.508-12.277-12.277v-26.009c0-6.77 5.508-12.277 12.277-12.277h369.366c6.77 0 12.277 5.507 12.277 12.277zM60.664 56.311h49.27v38.636l-49.27 29.876zM43.078 36.503V19.808A4.814 4.814 0 0147.886 15h74.827a4.814 4.814 0 014.808 4.808v16.695a4.814 4.814 0 01-4.808 4.808H47.886a4.813 4.813 0 01-4.808-4.808z"/></g></svg>