
<svg xmlns="http://www.w3.org/2000/svg" display="none">
    <symbol id="logo"  viewBox="0 0 26 26">
    <path d="M 7.78125 -0.03125 C 7.7140625 -0.0359375 7.64375 -0.025 7.59375 0 C 7.49375 0.2 7.7125 0.40625 7.8125 0.40625 C 7.5125 0.20625 7.2125 0.09375 6.8125 0.09375 C 6.7125 0.09375 6 0.0125 6 0.3125 C 6 0.5125 6.6 0.6875 6 0.6875 L 5.90625 0.6875 C 5.70625 0.6875 5.2125 0.8 5.3125 1 C 5.4125 1.1 5.60625 1.1125 5.40625 1.3125 C 5.10625 1.5125 4.70625 1.90625 4.90625 2.40625 C 5.00625 2.70625 5.2 2.9 5.5 3 C 5.9 3 6.3875 2.8125 6.6875 2.8125 C 6.2875 3.0125 5.90625 3.59375 5.90625 4.09375 C 5.90625 4.99375 7.10625 4.29375 7.40625 4.09375 C 7.20625 4.49375 7.5125 4.6875 7.8125 4.6875 C 8.1125 4.5875 8.49375 4.39375 8.59375 4.09375 C 8.59375 4.39375 8.69375 4.6875 9.09375 4.6875 C 9.49375 4.5875 9.7 4.19375 10 4.09375 C 10 4.19375 9.6875 4.7125 9.6875 4.8125 C 9.8875 5.0125 10.2 4.9 10.5 5 C 11.3 5.1 11.6125 6.0125 11.8125 6.8125 C 11.9125 7.0125 11.99375 7.2875 12.09375 7.6875 C 12.19375 7.3875 12.1875 7.2 12.1875 7 C 12.1875 5.9 12.39375 4.8875 12.59375 4.1875 C 12.09375 2.5875 11.4125 1.7875 11.3125 1.6875 C 11.0125 1.3875 11 1.8 11 2 C 11 1.6 10.1875 0.49375 9.6875 0.59375 C 9.6875 0.69375 9.7125 0.80625 9.8125 0.90625 C 9.6125 0.80625 9.4875 0.6 9.1875 0.5 C 8.8875 0.3 8.6125 0.19375 8.3125 0.09375 C 8.2375 0.09375 7.9828125 -0.0171875 7.78125 -0.03125 z M 17.9375 -0.03125 C 17.7875 -0.00625 17.64375 0.04375 17.59375 0.09375 L 16.6875 0.40625 C 16.4875 0.50625 16.29375 0.70625 16.09375 0.90625 C 16.09375 0.80625 16.1875 0.69375 16.1875 0.59375 C 15.6875 0.49375 15 1.6 15 2 C 15 1.8 15.0125 1.39375 14.8125 1.59375 C 14.6125 1.79375 13 3.5 13 7 C 13 7.4232095 12.800364 8.1469572 12.59375 8.90625 C 11.484651 8.3391064 10.24625 8 8.90625 8 C 5.10625 8 2 10.4125 2 13.3125 C 2 19.7125 11.9 17.6 13 26 C 14.1 17.6 24 19.6125 24 13.3125 C 24 10.4125 20.89375 8 17.09375 8 C 15.753017 8 14.563524 8.2783499 13.5625 8.78125 C 13.810312 8.0002658 14.039314 7.2570573 14.1875 6.8125 C 14.3875 6.0125 14.7 5.1 15.5 5 C 15.7 5 16.0125 5.0125 16.3125 4.8125 C 16.3125 4.7125 16 4.19375 16 4.09375 C 16.3 4.09375 16.50625 4.5875 16.90625 4.6875 C 17.30625 4.7875 17.40625 4.49375 17.40625 4.09375 C 17.50625 4.39375 17.8875 4.5875 18.1875 4.6875 C 18.4875 4.7875 18.79375 4.4875 18.59375 4.1875 C 18.89375 4.3875 20.09375 4.9875 20.09375 4.1875 C 20.09375 3.6875 19.6875 3.0125 19.1875 2.8125 C 19.4875 2.8125 20.00625 3 20.40625 3 C 20.70625 3 20.99375 2.80625 21.09375 2.40625 C 21.19375 1.90625 20.89375 1.6125 20.59375 1.3125 C 20.39375 1.1125 20.5875 1.2 20.6875 1 C 20.7875 0.8 20.29375 0.6875 20.09375 0.6875 C 19.39375 0.5875 20.1 0.5125 20 0.3125 C 20 0.0125 19.29375 0.09375 19.09375 0.09375 C 18.79375 0.09375 18.39375 0.20625 18.09375 0.40625 C 18.19375 0.30625 18.4125 0.1 18.3125 0 C 18.2625 -0.05 18.0875 -0.05625 17.9375 -0.03125 z"/>
    </symbol>
</svg>



