<svg xmlns="http://www.w3.org/2000/svg" dysplay="none">
<symbol id="logo" viewBox="0 0 40 40">
<g>
	<path style="fill:#DFF0FE;" d="M19.5,18.495c0.021-2.223,0.339-11.467,4.116-15.318C24.708,2.064,26.014,1.5,27.5,1.5   c4.959,0,8.002,3.379,8.844,4.453c-0.542,0.509-1.803,1.526-3.236,1.526c-0.636,0-1.248-0.205-1.819-0.608l-0.306-0.215   l-0.295,0.233C30.681,6.895,29.906,7.5,29,7.5c-1.575,0-2.558-1.691-2.567-1.708l-0.278-0.488l-0.453,0.332   c-0.245,0.181-5.904,4.438-6.124,12.86L19.5,18.495z"/>
	<g>
		<path style="fill:#4788C7;" d="M27.5,2c4.258,0,7.057,2.639,8.149,3.898c-0.581,0.475-1.522,1.081-2.541,1.081    c-0.538,0-1.039-0.169-1.531-0.517l-0.616-0.435L30.374,6.5C30.367,6.505,29.719,7,29,7c-1.277,0-2.125-1.442-2.131-1.452    l-0.554-0.984l-0.91,0.669c-0.173,0.127-2.945,2.211-4.764,6.269c0.539-2.98,1.526-6.134,3.332-7.976    C24.982,2.499,26.135,2,27.5,2 M27.5,1C18.646,1,19,18.991,19,18.991L20.071,19c0-8.604,5.926-12.961,5.926-12.961S27.102,8,29,8    c1.103,0,2-0.721,2-0.721c0.718,0.507,1.434,0.7,2.108,0.7C35.267,7.979,37,6,37,6S33.703,1,27.5,1L27.5,1z"/>
	</g>
</g>
<g>
	<path style="fill:#DFF0FE;" d="M20.422,19.496c-0.146-8.362-3.888-12.612-4.05-12.792L15.909,6.19l-0.343,0.602   C15.556,6.809,14.574,8.5,12.998,8.5c-0.902,0-1.679-0.604-1.687-0.61l-0.35-0.281l-0.317,0.317   c-0.313,0.313-0.653,0.466-1.039,0.466c-1.404,0-3.132-1.965-3.939-3.068C6.615,4.567,9.649,2.5,14.498,2.5   c1.486,0,2.677,0.535,3.642,1.634c3.383,3.854,2.631,13.237,2.411,15.361L20.422,19.496z"/>
	<g>
		<path style="fill:#4788C7;" d="M14.498,3c1.333,0,2.401,0.479,3.266,1.463c1.895,2.157,2.432,6.181,2.508,9.574    c-1.145-4.966-3.402-7.527-3.529-7.669L15.82,5.352l-0.688,1.191C15.123,6.558,14.275,8,12.998,8c-0.723,0-1.373-0.5-1.373-0.5    l-0.7-0.563l-0.634,0.634c-0.283,0.283-0.515,0.32-0.685,0.32c-0.939,0-2.299-1.278-3.242-2.473C7.55,4.568,10.304,3,14.498,3     M14.498,2c-6.203,0-9.5,3.239-9.5,3.239s2.414,3.652,4.608,3.652c0.484,0,0.958-0.178,1.392-0.612c0,0,0.897,0.721,2,0.721    C14.896,9,16,7.039,16,7.039S19.927,11.396,19.927,20l1.071-0.009C20.998,19.991,23.352,2,14.498,2L14.498,2z"/>
	</g>
</g>
<g>
	<path style="fill:#B6DCFE;" d="M19.995,37.845c-1.422-2.549-4.161-4.843-7.041-7.256C8.798,27.107,4.5,23.506,4.5,19.143   c0-4.766,3.877-8.643,8.643-8.643c2.474,0,4.837,1.071,6.481,2.94L20,13.866l0.375-0.426c1.645-1.869,4.007-2.94,6.481-2.94   c4.766,0,8.643,3.877,8.643,8.643c0,4.41-4.305,7.993-8.468,11.457C24.143,33.005,21.396,35.292,19.995,37.845z"/>
	<path style="fill:#4788C7;" d="M26.857,11C31.347,11,35,14.653,35,19.143c0,4.175-4.213,7.682-8.288,11.073   c-2.656,2.21-5.193,4.322-6.72,6.664c-1.541-2.338-4.07-4.456-6.717-6.674C9.207,26.797,5,23.273,5,19.143   C5,14.653,8.653,11,13.143,11c2.331,0,4.556,1.01,6.107,2.77L20,14.623l0.75-0.852C22.301,12.01,24.527,11,26.857,11 M26.857,10   c-2.734,0-5.182,1.207-6.857,3.109C18.325,11.207,15.877,10,13.143,10C8.093,10,4,14.093,4,19.143C4,27.137,17.262,32.34,20,39   c2.652-6.66,16-11.767,16-19.857C36,14.093,31.907,10,26.857,10L26.857,10z"/>
</g>
</symbol>
</svg>
