<svg xmlns="http://www.w3.org/2000/svg" display="none">
<symbol id="logo" viewBox="0 0 128 128">
<g>
<path d="M72.4,30.057a34.643,34.643,0,0,1,7.674-17.546,4.748,4.748,0,0,0-.446-6.5,4.759,4.759,0,0,0-6.9.466,44.614,44.614,0,0,0-4.088,5.857A4.747,4.747,0,0,0,64,8.58a4.755,4.755,0,0,0-4.641,3.755,44.725,44.725,0,0,0-4.09-5.86,4.776,4.776,0,0,0-3.341-1.713,4.849,4.849,0,0,0-3.565,1.26,4.75,4.75,0,0,0-.432,6.493A34.636,34.636,0,0,1,55.6,30.057C41.1,33.05,33.5,44.37,33.5,63.25c0,14.894,7.665,25.162,15.077,35.092,5.311,7.113,10.8,14.47,13.756,23.692a1.75,1.75,0,0,0,3.333,0c2.954-9.216,8.444-16.57,13.753-23.683,7.414-9.933,15.081-20.2,15.081-35.1C94.5,44.37,86.9,33.05,72.4,30.057ZM75.429,8.705a1.261,1.261,0,0,1,1.815-.128,1.254,1.254,0,0,1,.406.923,1.221,1.221,0,0,1-.28.786,38,38,0,0,0-8.43,19.231l-.19-.019V20.285A39.49,39.49,0,0,1,75.429,8.705ZM64,12.08a1.221,1.221,0,0,1,.883.367,1.248,1.248,0,0,1,.367.883V29.273c-.414-.01-.827-.023-1.25-.023s-.836.013-1.25.023V13.33A1.252,1.252,0,0,1,64,12.08ZM50.633,10.29a1.227,1.227,0,0,1-.283-.79,1.255,1.255,0,0,1,2.218-.8A39.5,39.5,0,0,1,59.25,20.285V29.5l-.19.019A37.981,37.981,0,0,0,50.633,10.29ZM76.614,96.257C72,102.438,67.255,108.8,64,116.482c-3.255-7.692-8-14.051-12.618-20.234C43.985,86.34,37,76.981,37,63.25c0-20.523,8.832-30.5,27-30.5s27,9.977,27,30.5C91,76.984,84.013,86.346,76.614,96.257Z"/>
<path d="M88.04,55.775a33.478,33.478,0,0,0-1.715-7.155,1.75,1.75,0,0,0-3.281,1.219,30.021,30.021,0,0,1,1.527,6.4A1.75,1.75,0,0,0,86.3,57.759a1.708,1.708,0,0,0,.235-.016A1.75,1.75,0,0,0,88.04,55.775Z"/>
</g>
</symbol>
</svg>

<svg  xmlns="http://www.w3.org/2000/svg" display="none">
<symbol id="facebook" viewBox="0 0 512 512">
<path d="m483.738281 0h-455.5c-15.597656.0078125-28.24218725 12.660156-28.238281 28.261719v455.5c.0078125 15.597656 12.660156 28.242187 28.261719 28.238281h455.476562c15.605469.003906 28.257813-12.644531 28.261719-28.25 0-.003906 0-.007812 0-.011719v-455.5c-.007812-15.597656-12.660156-28.24218725-28.261719-28.238281zm0 0" fill="#4267b2"/>
<path d="m353.5 512v-198h66.75l10-77.5h-76.75v-49.359375c0-22.386719 6.214844-37.640625 38.316406-37.640625h40.683594v-69.128906c-7.078125-.941406-31.363281-3.046875-59.621094-3.046875-59 0-99.378906 36-99.378906 102.140625v57.035156h-66.5v77.5h66.5v198zm0 0" fill="#fff"/>
</symbol>
</svg>
<svg  xmlns="http://www.w3.org/2000/svg" display="none">
	 <symbol id="Telegram" viewBox="0 0 512 512" >
<circle style="fill:#47B0D3;" cx="256" cy="256" r="256"/>
<path style="fill:#3298BA;" d="M34.133,256c0-135.648,105.508-246.636,238.933-255.421C267.424,0.208,261.737,0,256,0
	C114.615,0,0,114.615,0,256s114.615,256,256,256c5.737,0,11.424-0.208,17.067-0.579C139.642,502.636,34.133,391.648,34.133,256z"/>
<path style="fill:#E5E5E5;" d="M380.263,109.054c-2.486-1.69-5.676-1.946-8.399-0.679L96.777,236.433
	c-4.833,2.251-7.887,7.172-7.766,12.501c0.117,5.226,3.28,9.92,8.065,12.015l253.613,110.457c8.468,3.849,18.439-2.21,18.983-11.453
	l14.314-243.341C384.161,113.614,382.748,110.742,380.263,109.054z"/>
<polygon style="fill:#CCCCCC;" points="171.631,293.421 188.772,408 379.168,108.432 "/>
<path style="fill:#FFFFFF;" d="M371.866,108.375L96.777,236.433c-4.737,2.205-7.826,7.121-7.769,12.345
	c0.058,5.233,3.276,10.074,8.067,12.171l74.557,32.471l207.536-184.988C376.882,107.33,374.203,107.287,371.866,108.375z"/>
<polygon style="fill:#E5E5E5;" points="211.418,310.749 188.772,408 379.168,108.432 "/>
<path style="fill:#FFFFFF;" d="M380.263,109.054c-0.351-0.239-0.72-0.442-1.095-0.622l-167.75,202.317l139.27,60.657
	c8.468,3.849,18.439-2.21,18.983-11.453l14.314-243.341C384.161,113.614,382.748,110.742,380.263,109.054z"/>
<g>
</g>
<g>
</g>
<g>
</g>
<g>
</g>
<g>
</g>
<g>
</g>
<g>
</g>
<g>
</g>
<g>
</g>
<g>
</g>
<g>
</g>
<g>
</g>
<g>
</g>
<g>
</g>
<g>
</g>
</symbol>
</svg>