
<svg display="none" xmlns="http://www.w3.org/2000/svg" >

<symbol id="arow"  viewBox="0 0 13.5 7.656"> 

<path  d="M896.125,616.651l-3.375-3.375,0.844-.844,5.906,5.907,5.906-5.977,0.844,0.844-6.75,6.82-0.844-.843Z" transform="translate(-892.75 -612.375)" />
</symbol>

<symbol id="search"  viewBox="0 0 20 20.062"> 

<path  d="M1207.99,445.98l-1.04,1.047-5.77-5.784a6.393,6.393,0,0,1-1.09.8,8.623,8.623,0,0,1-1.24.6,7.282,7.282,0,0,1-1.37.374,8.383,8.383,0,0,1-1.42.125,7.735,7.735,0,0,1-3.16-.648,8.442,8.442,0,0,1-2.56-1.745,7.911,7.911,0,0,1-1.71-2.568,7.82,7.82,0,0,1-.62-3.116,8.06,8.06,0,0,1,2.33-5.734,8.1,8.1,0,0,1,2.56-1.72,8.008,8.008,0,0,1,3.16-.623,7.993,7.993,0,0,1,5.67,2.343,8.35,8.35,0,0,1,1.74,2.568,7.794,7.794,0,0,1,.64,3.166,8.663,8.663,0,0,1-.12,1.421,7.462,7.462,0,0,1-.37,1.371,9.336,9.336,0,0,1-.6,1.246,6.95,6.95,0,0,1-.79,1.1l5.76,5.784h0Zm-19.14-10.919a7.015,7.015,0,0,0,.55,2.792,7.121,7.121,0,0,0,1.54,2.293,7.322,7.322,0,0,0,2.31,1.571,6.992,6.992,0,0,0,2.81.573,6.828,6.828,0,0,0,2.79-.573,7.422,7.422,0,0,0,2.28-1.571,7.547,7.547,0,0,0,1.57-2.293,6.858,6.858,0,0,0,.57-2.792,7.036,7.036,0,0,0-.57-2.817,7.48,7.48,0,0,0-1.57-2.318,7.018,7.018,0,0,0-5.07-2.095,7.274,7.274,0,0,0-2.81.549,7.094,7.094,0,0,0-3.85,3.864,7.2,7.2,0,0,0-.55,2.817h0Z" transform="translate(-1188 -426.969)"/>
</symbol>

<symbol id="icon2"  viewBox="0 0 59.907 59.91"> 

<path  d="M900,1619.55a29.925,29.925,0,1,1-11.672,2.32A29.593,29.593,0,0,1,900,1619.55h0Zm0,57.51a26.481,26.481,0,0,0,10.758-2.18,26.615,26.615,0,0,0,14.625-14.62,27.656,27.656,0,0,0,0-21.52,26.615,26.615,0,0,0-14.625-14.62,27.635,27.635,0,0,0-21.516,0,26.615,26.615,0,0,0-14.625,14.62,27.644,27.644,0,0,0,0,21.52,26.615,26.615,0,0,0,14.625,14.62A26.467,26.467,0,0,0,900,1677.06h0Zm15.047-38.25a1.416,1.416,0,0,1,1.195-.56,1.847,1.847,0,0,1,1.336.56,2.178,2.178,0,0,1,.422,1.34,1.4,1.4,0,0,1-.563,1.19l-20.531,19.97a0.637,0.637,0,0,1-.492.35,3.04,3.04,0,0,1-.633.07,3.714,3.714,0,0,1-.773-0.07,0.63,0.63,0,0,1-.492-0.35l-8.016-8.01a1.831,1.831,0,0,1-.562-1.34,1.967,1.967,0,0,1,1.757-1.76,1.818,1.818,0,0,1,1.336.57l6.75,6.75,19.266-18.71h0Z" transform="translate(-870.031 -1619.53)"/>
</symbol>

<symbol id="icon3"  viewBox="0 0 61.31 58.79"> 

<path  d="M1310.59,1648.66a5.645,5.645,0,0,1-.29,1.82,4.866,4.866,0,0,1-.84,1.55,4.953,4.953,0,0,1-1.26,1.13,8.117,8.117,0,0,1-1.55.7,8.716,8.716,0,0,1,.7,1.48,5.021,5.021,0,0,1,.28,1.75,5.208,5.208,0,0,1-.28,1.69,8.117,8.117,0,0,1-.7,1.55,9.455,9.455,0,0,1-1.27,1.05,7.3,7.3,0,0,1-1.4.78,8.023,8.023,0,0,1,.7,1.54,5.3,5.3,0,0,1,.28,1.69,5.079,5.079,0,0,1-.28,1.76,8.619,8.619,0,0,1-.7,1.47,5.987,5.987,0,0,1-1.27,1.2,3.638,3.638,0,0,1-1.55.63,4.825,4.825,0,0,1,1.13,3.24,5.024,5.024,0,0,1-.42,1.97,5.229,5.229,0,0,1-1.13,1.68,7.238,7.238,0,0,1-1.83,1.13,5.3,5.3,0,0,1-2.11.42h-18.56a10.433,10.433,0,0,1-2.25-.28,18.428,18.428,0,0,1-2.67-.84,24.043,24.043,0,0,1-2.81-1.06c-0.94-.42-1.88-0.82-2.81-1.19-1.13-.47-2.23-0.94-3.31-1.41a6.852,6.852,0,0,0-2.32-.7h-12.8v-27.43l1.13-.14h10.97a8.942,8.942,0,0,0,2.32-.28,6.385,6.385,0,0,0,2.18-1.12,23.738,23.738,0,0,0,2.88-1.97q1.62-1.275,3.87-3.1a14.178,14.178,0,0,0,5.13-9.14q0.765-5.475.77-6.32a3.249,3.249,0,0,1,.43-1.62,3.023,3.023,0,0,1,1.12-1.2,4.125,4.125,0,0,1,1.48-.77,5.549,5.549,0,0,1,1.47-.21,9.124,9.124,0,0,1,2.25.28,4.526,4.526,0,0,1,2.11,1.27,6.7,6.7,0,0,1,1.55,2.6,13.555,13.555,0,0,1,.56,4.29,29.3,29.3,0,0,1-.35,4.57,36.576,36.576,0,0,1-.91,4.15,23.294,23.294,0,0,1-1.06,3.58c-0.42,1.08-.77,1.99-1.05,2.74h19.12a5.924,5.924,0,0,1,2.18.36,6.08,6.08,0,0,1,1.76,1.05,4.528,4.528,0,0,1,1.05,1.62,5.53,5.53,0,0,1,.36,2.04h0Zm-5.35,2.95a3.638,3.638,0,0,0,1.27-.21,1.709,1.709,0,0,0,.84-0.63,4.309,4.309,0,0,0,.7-0.92,2.331,2.331,0,0,0,.29-1.19,2.713,2.713,0,0,0-.85-1.97,3.008,3.008,0,0,0-2.25-.85h-22.92l0.84-1.68q3.945-9.705,3.94-15.61c0-3.1-.51-4.9-1.55-5.42a6.082,6.082,0,0,0-2.53-.77,3.224,3.224,0,0,0-1.26.42,1.282,1.282,0,0,0-.85,1.13c0,0.56-.04,1.5-0.14,2.81a22.928,22.928,0,0,1-.84,4.5,29.08,29.08,0,0,1-2.04,5.2,14.092,14.092,0,0,1-3.73,4.64c-1.59,1.32-2.93,2.42-4,3.31a26.032,26.032,0,0,1-3.03,2.18,12.412,12.412,0,0,1-2.81,1.26,10.262,10.262,0,0,1-2.95.42h-9.71v22.79h10.41a7.669,7.669,0,0,1,2.6.63c1.08,0.42,2.41.96,4.01,1.62,0.75,0.37,1.57.77,2.46,1.19a25.892,25.892,0,0,0,2.6,1.06c0.94,0.28,1.78.54,2.53,0.77a6.893,6.893,0,0,0,1.97.35h18.56a2.788,2.788,0,0,0,1.27-.28,3.874,3.874,0,0,0,.98-0.7,1.653,1.653,0,0,0,.64-0.85,3.17,3.17,0,0,0,.21-1.12,3.069,3.069,0,0,0-.21-1.2,2.965,2.965,0,0,0-1.62-1.54,3.42,3.42,0,0,0-1.27-.22h-0.28v-2.39h3.24a3.17,3.17,0,0,0,1.12-.21,2.7,2.7,0,0,0,.99-0.63c0.18-.28.37-0.61,0.56-0.98a2.482,2.482,0,0,0,.28-1.13,2.443,2.443,0,0,0-.28-1.12,10.608,10.608,0,0,0-.56-0.99,8.739,8.739,0,0,0-.99-0.56,2.443,2.443,0,0,0-1.12-.28h-0.99v-2.39h3.52a3.17,3.17,0,0,0,1.12-.21,2.728,2.728,0,0,0,.99-0.64,3.874,3.874,0,0,0,.7-0.98,2.452,2.452,0,0,0,.28-1.13,2.745,2.745,0,0,0-.28-1.26,2.152,2.152,0,0,0-.7-0.85,3.758,3.758,0,0,0-.99-0.7,2.443,2.443,0,0,0-1.12-.28h-1.13v-2.39h4.08Z" transform="translate(-1249.28 -1620.09)"/>
</symbol>

<symbol id="quote-left"  viewBox="0 0 512 512"> 

<path  d="M464 256h-80v-64c0-35.3 28.7-64 64-64h8c13.3 0 24-10.7 24-24V56c0-13.3-10.7-24-24-24h-8c-88.4 0-160 71.6-160 160v240c0 26.5 21.5 48 48 48h128c26.5 0 48-21.5 48-48V304c0-26.5-21.5-48-48-48zm-288 0H96v-64c0-35.3 28.7-64 64-64h8c13.3 0 24-10.7 24-24V56c0-13.3-10.7-24-24-24h-8C71.6 32 0 103.6 0 192v240c0 26.5 21.5 48 48 48h128c26.5 0 48-21.5 48-48V304c0-26.5-21.5-48-48-48z"></path>
</symbol>

<symbol id="facebook"  viewBox="0 0 24 24"> 
<path d="m15.997 3.985h2.191v-3.816c-.378-.052-1.678-.169-3.192-.169-6.932 0-5.046 7.85-5.322 9h-3.487v4.266h3.486v10.734h4.274v-10.733h3.345l.531-4.266h-3.877c.188-2.824-.761-5.016 2.051-5.016z" />
</symbol>

<symbol id="twitter"  viewBox="0 0 512 512"> 
<path  d="M512,97.248c-19.04,8.352-39.328,13.888-60.48,16.576c21.76-12.992,38.368-33.408,46.176-58.016
	c-20.288,12.096-42.688,20.64-66.56,25.408C411.872,60.704,384.416,48,354.464,48c-58.112,0-104.896,47.168-104.896,104.992
	c0,8.32,0.704,16.32,2.432,23.936c-87.264-4.256-164.48-46.08-216.352-109.792c-9.056,15.712-14.368,33.696-14.368,53.056
	c0,36.352,18.72,68.576,46.624,87.232c-16.864-0.32-33.408-5.216-47.424-12.928c0,0.32,0,0.736,0,1.152
	c0,51.008,36.384,93.376,84.096,103.136c-8.544,2.336-17.856,3.456-27.52,3.456c-6.72,0-13.504-0.384-19.872-1.792
	c13.6,41.568,52.192,72.128,98.08,73.12c-35.712,27.936-81.056,44.768-130.144,44.768c-8.608,0-16.864-0.384-25.12-1.44
	C46.496,446.88,101.6,464,161.024,464c193.152,0,298.752-160,298.752-298.688c0-4.64-0.16-9.12-0.384-13.568
	C480.224,136.96,497.728,118.496,512,97.248z"/>
</symbol>

<symbol id="linkedin"  viewBox="0 0 512 512"> 
<circle  cx="64" cy="64" r="64"/>
	<path  d="M10.667,170.667h106.667c5.891,0,10.667,4.776,10.667,10.667v320
		c0,5.891-4.776,10.667-10.667,10.667H10.667C4.776,512,0,507.224,0,501.333v-320C0,175.442,4.776,170.667,10.667,170.667z"/>
	<path  d="M435.2,155.989c-46.708-13.31-96.923-4.98-136.832,22.699c-1.211-4.732-5.483-8.037-10.368-8.021
		H181.333c-5.891,0-10.667,4.776-10.667,10.667v320c0,5.891,4.776,10.667,10.667,10.667H288c5.891,0,10.667-4.776,10.667-10.667
		V271.36c15.414-14.524,37.701-19.113,57.6-11.861c18.7,9.237,29.74,29.075,27.733,49.835v192c0,5.891,4.776,10.667,10.667,10.667
		h106.667c5.891,0,10.667-4.776,10.667-10.667V287.851C510.784,200.192,469.547,167.744,435.2,155.989z"/>
</symbol>

<symbol id="youtube"  viewBox="0 -77 512.00213 512"> 
<path  d="m501.453125 56.09375c-5.902344-21.933594-23.195313-39.222656-45.125-45.128906-40.066406-10.964844-200.332031-10.964844-200.332031-10.964844s-160.261719 0-200.328125 10.546875c-21.507813 5.902344-39.222657 23.617187-45.125 45.546875-10.542969 40.0625-10.542969 123.148438-10.542969 123.148438s0 83.503906 10.542969 123.148437c5.90625 21.929687 23.195312 39.222656 45.128906 45.128906 40.484375 10.964844 200.328125 10.964844 200.328125 10.964844s160.261719 0 200.328125-10.546875c21.933594-5.902344 39.222656-23.195312 45.128906-45.125 10.542969-40.066406 10.542969-123.148438 10.542969-123.148438s.421875-83.507812-10.546875-123.570312zm0 0"/><path d="m204.96875 256 133.269531-76.757812-133.269531-76.757813zm0 0" fill="#232323" />
</symbol>


<symbol id="pinterest"  viewBox="0 0 64 64"> 
<path d="m25.31 48.84c-9.76-3.45-15.35-13.9-12.61-24.06 2.88-10.66 13.86-16.96 24.52-14.08s16.96 13.86 14.08 24.52-13.86 16.96-24.52 14.08c-.5-.14-.99-.29-1.47-.46z" /><path d="m22.943 50.03-.881 3.478c-.271 1.071.376 2.159 1.446 2.431.165.041.331.061.493.061.894 0 1.708-.603 1.938-1.508l.798-3.149c1.756.434 3.531.659 5.298.659 3.795 0 7.541-.99 10.919-2.93 5.096-2.925 8.745-7.659 10.277-13.33 1.532-5.672.766-11.601-2.158-16.695-2.926-5.096-7.66-8.746-13.331-10.277-5.673-1.533-11.602-.766-16.694 2.159-5.096 2.925-8.745 7.659-10.277 13.33-2.818 10.441 2.488 21.396 12.172 25.771zm-8.312-24.729c1.254-4.639 4.239-8.511 8.407-10.904s9.021-3.021 13.66-1.766c4.639 1.253 8.512 4.239 10.904 8.408 2.393 4.168 3.021 9.019 1.767 13.66-1.253 4.639-4.239 8.511-8.407 10.904-4.047 2.324-8.739 2.968-13.243 1.858l1.54-6.08c.906.232 1.824.357 2.738.357 1.896 0 3.769-.496 5.458-1.467 2.55-1.465 4.374-3.834 5.136-6.667.769-2.835.385-5.8-1.08-8.35-1.466-2.549-3.835-4.373-6.668-5.135-2.84-.768-5.806-.385-8.353 1.081-2.547 1.464-4.369 3.833-5.127 6.656-.338 1.214-.457 2.468-.356 3.724.087 1.101 1.065 1.916 2.152 1.834 1.102-.088 1.923-1.052 1.834-2.153-.063-.788.013-1.573.229-2.351.484-1.804 1.644-3.311 3.263-4.242 1.62-.933 3.507-1.177 5.316-.686 1.804.484 3.31 1.645 4.242 3.266.932 1.622 1.176 3.508.686 5.314-.484 1.803-1.645 3.31-3.267 4.242-1.595.917-3.443 1.164-5.222.706l1.478-5.837c.271-1.071-.376-2.159-1.447-2.43-1.069-.272-2.158.377-2.43 1.447l-1.909 7.535c-.005.018-.009.036-.014.054l-1.974 7.794c-7.507-3.765-11.553-12.464-9.313-20.772z" fill="#232323"/>
</symbol>


</svg>
