<svg xmlns="http://www.w3.org/2000/svg" width="40.08" height="40.192" viewBox="0 0 40.08 40.192">
  <path id="Settings" d="M822.6,835.644l-1.237-4.963a15.606,15.606,0,0,1-2.832-1.205l-4.4,2.65a.72.72,0,0,1-.877-.107l-3.419-3.43a.721.721,0,0,1-.107-.879l2.642-4.407a15.164,15.164,0,0,1-1.177-2.839l-4.975-1.247a.724.724,0,0,1-.545-.7v-4.844a.72.72,0,0,1,.545-.7l4.946-1.238a15.777,15.777,0,0,1,1.2-2.845l-2.642-4.414a.726.726,0,0,1,.107-.882l3.414-3.423a.711.711,0,0,1,.88-.108l4.4,2.646a15.247,15.247,0,0,1,2.826-1.177l1.243-4.99a.721.721,0,0,1,.7-.547h4.832a.719.719,0,0,1,.7.547l1.238,4.966a16.069,16.069,0,0,1,2.829,1.2l4.406-2.651a.735.735,0,0,1,.878.111l3.414,3.424a.722.722,0,0,1,.11.882l-2.641,4.419a15.451,15.451,0,0,1,1.172,2.826l4.981,1.252a.72.72,0,0,1,.545.7v4.84a.719.719,0,0,1-.545.7l-4.981,1.251a15.187,15.187,0,0,1-1.169,2.829L841.7,827.7a.723.723,0,0,1-.11.882l-3.415,3.431a.729.729,0,0,1-.877.109l-4.406-2.652a15.807,15.807,0,0,1-2.831,1.2l-1.232,4.964a.722.722,0,0,1-.7.545l-4.831,0A.722.722,0,0,1,822.6,835.644Zm-3.722-7.626a14.167,14.167,0,0,0,3.279,1.391.731.731,0,0,1,.5.523l1.2,4.815,3.706,0,1.2-4.818a.723.723,0,0,1,.5-.518,14.229,14.229,0,0,0,3.279-1.392.715.715,0,0,1,.728,0l4.28,2.58,2.623-2.635-2.571-4.289a.73.73,0,0,1-.008-.734,13.651,13.651,0,0,0,1.355-3.27.717.717,0,0,1,.519-.509l4.839-1.218v-3.713l-4.839-1.215a.715.715,0,0,1-.519-.511,13.9,13.9,0,0,0-1.355-3.272.73.73,0,0,1,.008-.73l2.566-4.289-2.621-2.628-4.28,2.576a.705.705,0,0,1-.728.006,14.4,14.4,0,0,0-3.279-1.392.714.714,0,0,1-.5-.517l-1.2-4.819h-3.706l-1.209,4.847a.719.719,0,0,1-.508.52,13.913,13.913,0,0,0-3.269,1.362.7.7,0,0,1-.728-.007l-4.275-2.574-2.621,2.632,2.566,4.284a.722.722,0,0,1,.005.733,14.472,14.472,0,0,0-1.389,3.293.721.721,0,0,1-.52.506l-4.8,1.2v3.715l4.834,1.215a.717.717,0,0,1,.519.51,13.79,13.79,0,0,0,1.36,3.275.722.722,0,0,1-.007.732l-2.566,4.285,2.623,2.633,4.276-2.577a.716.716,0,0,1,.731-.008Zm1.287-11.926a5.547,5.547,0,1,1,5.549,5.565A5.562,5.562,0,0,1,820.162,816.092Zm1.438,0a4.109,4.109,0,1,0,4.111-4.121A4.122,4.122,0,0,0,821.6,816.092Z" transform="translate(-805.667 -795.997)" fill="#ff3b4a"/>
</svg>
