<svg xmlns="http://www.w3.org/2000/svg" viewBox="0 0 23 23" width="23" height="23">
	<style>
		tspan { white-space:pre }
		.shp0 { opacity: 0.702;fill: #b7b9cd } 
	</style>
	<g id="best game">
		<g id="Group 1 copy 4">
			<path id="basket" class="shp0" d="M21.95 9.77L21.97 9.77L19.47 21.02L19.45 21.01C19.32 21.57 18.85 22 18.25 22L5.75 22C5.15 22 4.68 21.57 4.55 21.01L4.53 21.02L2.03 9.77L2.05 9.77C2.03 9.68 2 9.59 2 9.5C2 8.81 2.56 8.25 3.25 8.25L5.75 8.25C5.75 4.8 8.55 2 12 2C15.45 2 18.25 4.8 18.25 8.25L20.75 8.25C21.44 8.25 22 8.81 22 9.5C22 9.59 21.97 9.68 21.95 9.77ZM12 4.5C9.93 4.5 8.25 6.18 8.25 8.25L15.75 8.25C15.75 6.18 14.07 4.5 12 4.5ZM17 13.25C16.31 13.25 15.75 12.69 15.75 12L15.75 10.75L8.25 10.75L8.25 12C8.25 12.69 7.69 13.25 7 13.25C6.31 13.25 5.75 12.69 5.75 12L5.75 10.75L4.81 10.75L6.75 19.5L17.25 19.5L19.19 10.75L18.25 10.75L18.25 12C18.25 12.69 17.69 13.25 17 13.25Z" />
		</g>
	</g>
</svg>