<svg xmlns="http://www.w3.org/2000/svg" viewBox="0 0 21 25" width="21" height="25">
	<style>
		tspan { white-space:pre }
		.shp0 { opacity: 0.702;fill: #b7b9cd } 
	</style>
	<g id="best game">
		<g id="Group 1 copy 3">
			<path id="card" class="shp0" d="M19.99 13.31C19.99 15.99 17.87 18.16 15.25 18.16C13.69 18.16 12.33 17.38 11.47 16.2L11.45 16.22L10.5 14.92L9.55 16.22L9.54 16.21C8.67 17.38 7.31 18.16 5.75 18.16C3.13 18.16 1.01 15.99 1.01 13.31C1.01 12.22 1.37 11.22 1.97 10.41L1.96 10.4C1.96 10.4 8.92 1.99 10.5 1.99C12.08 1.99 19.04 10.4 19.04 10.4L19.03 10.41C19.63 11.22 19.99 12.22 19.99 13.31ZM8.92 19.77L8.92 18.16C8.92 17.26 9.63 16.54 10.5 16.54C11.37 16.54 12.08 17.26 12.08 18.16L12.08 19.77C12.96 19.77 13.66 20.5 13.66 21.39C13.66 22.28 12.96 23.01 12.08 23.01L8.92 23.01C8.04 23.01 7.34 22.28 7.34 21.39C7.34 20.5 8.04 19.77 8.92 19.77Z" />
		</g>
	</g>
</svg>