<svg xmlns="http://www.w3.org/2000/svg" viewBox="0 0 26 26" width="26" height="26">
	<style>
		tspan { white-space:pre }
		.shp0 { fill: #ffffff } 
	</style>
	<g id="best game">
		<g id="Group 1">
			<path id="tooltip"  class="shp0" d="M21.4 20L17.78 20L13.99 23.79L13.99 23.79C13.74 24.04 13.39 24.2 13 24.2C12.61 24.2 12.26 24.04 12.01 23.79L12.01 23.79L8.22 20L4.6 20C3.05 20 1.8 18.75 1.8 17.2L1.8 4.6C1.8 3.05 3.05 1.8 4.6 1.8L21.4 1.8C22.95 1.8 24.2 3.05 24.2 4.6L24.2 17.2C24.2 18.75 22.95 20 21.4 20ZM21.4 6C21.4 5.23 20.77 4.6 20 4.6L6 4.6C5.23 4.6 4.6 5.23 4.6 6L4.6 15.8C4.6 16.57 5.23 17.2 6 17.2L7.4 17.2L8.8 17.2C9.19 17.2 9.54 17.36 9.79 17.61L9.79 17.61L13 20.82L16.21 17.61L16.21 17.61C16.46 17.36 16.81 17.2 17.2 17.2L18.6 17.2L20 17.2C20.77 17.2 21.4 16.57 21.4 15.8L21.4 6ZM17.2 14.4L8.8 14.4C8.03 14.4 7.4 13.77 7.4 13C7.4 12.23 8.03 11.6 8.8 11.6L17.2 11.6C17.97 11.6 18.6 12.23 18.6 13C18.6 13.77 17.97 14.4 17.2 14.4ZM17.2 10.2L8.8 10.2C8.03 10.2 7.4 9.57 7.4 8.8C7.4 8.03 8.03 7.4 8.8 7.4L17.2 7.4C17.97 7.4 18.6 8.03 18.6 8.8C18.6 9.57 17.97 10.2 17.2 10.2Z" />
		</g>
	</g>
</svg>