<svg xmlns="http://www.w3.org/2000/svg" width="39.26" height="37.001" viewBox="0 0 39.26 37.001">
  <path id="Pencil" d="M1165.7,809.067a23.1,23.1,0,0,0-11.722-12.828.833.833,0,0,0-.925.139l-17.489,15.962-2.019,1.843a.857.857,0,0,0-.261.345c-.009.021-.018.048-.027.073l-4.7,12.21-2.007,5.217a.832.832,0,0,0,.779,1.132.764.764,0,0,0,.231-.033l5.379-1.524,12.65-3.587a.859.859,0,0,0,.23-.1c.039-.028.079-.058.115-.088l2.065-1.885,17.485-15.963A.836.836,0,0,0,1165.7,809.067Zm-35.92,19.206a1.127,1.127,0,0,0,.106.052,4.5,4.5,0,0,1,.967.779,4.637,4.637,0,0,1,.685,1.03.689.689,0,0,1,.045.113l-2.877.817Zm15.166-1.815-11.713,3.321c-.033-.072-.091-.126-.127-.2a5.456,5.456,0,0,0-2.529-2.766c-.07-.041-.112-.1-.182-.14l4.372-11.351,1.31-1.189,1.058,1.156,9.114,9.975Zm2.537-2.317-2.647-2.9,13.9-12.683a.846.846,0,0,0,.27-.622.818.818,0,0,0-.218-.56.836.836,0,0,0-1.179-.053l-13.9,12.684-.543-.6-2.083-2.284,13.9-12.683a.836.836,0,1,0-1.128-1.234l-13.9,12.686-2.641-2.894,16.446-15.013a21.448,21.448,0,0,1,10.175,11.135Z" transform="translate(-1126.492 -796.157)" fill="#ff3b4a"/>
</svg>
