<svg xmlns="http://www.w3.org/2000/svg" width="43.986" height="32.993" viewBox="0 0 43.986 32.993">
  <path id="Truck_2" data-name="Truck 2" d="M1150.509,1083.969a6.088,6.088,0,1,1,6.092,6.02A6.061,6.061,0,0,1,1150.509,1083.969Zm1.578,0a4.51,4.51,0,1,0,4.514-4.458A4.492,4.492,0,0,0,1152.087,1083.969Zm-22.779,0a6.09,6.09,0,1,1,6.089,6.019A6.06,6.06,0,0,1,1129.308,1083.966Zm1.575,0a4.513,4.513,0,1,0,4.514-4.456A4.492,4.492,0,0,0,1130.883,1083.966Zm33.643.78a.78.78,0,1,1,0-1.561h1.85v-8.87h-7.126a.783.783,0,0,1-.788-.779v-9.715h-6.339v14.319a.789.789,0,0,1-1.578,0v-19.589h-24.961v24.634h1.878a.78.78,0,1,1,0,1.561H1124.8a.785.785,0,0,1-.79-.78v-26.192a.785.785,0,0,1,.79-.779h26.54a.783.783,0,0,1,.788.779v4.487h15.04a.787.787,0,0,1,.79.782v10.4c0,.036.038.056.038.092s-.035.053-.038.089v10.34a.785.785,0,0,1-.79.78Zm-4.488-11.991h6.339v-8.933h-6.339Zm-16.709,11.991a.78.78,0,1,1,0-1.561h5.339a.78.78,0,1,1,0,1.561Z" transform="translate(-1124.006 -1056.996)" fill="#ff3b4a"/>
</svg>
